<?xml version="1.0" standalone="no"?>
<!DOCTYPE svg PUBLIC "-//W3C//DTD SVG 20010904//EN"
 "http://www.w3.org/TR/2001/REC-SVG-20010904/DTD/svg10.dtd">
<svg version="1.0" xmlns="http://www.w3.org/2000/svg"
 width="500.000000pt" height="167.000000pt" viewBox="0 0 500.000000 167.000000"
 preserveAspectRatio="xMidYMid meet">

<g transform="translate(0.000000,167.000000) scale(0.100000,-0.100000)"
fill="#000000" stroke="none">
<path d="M0 835 l0 -835 2500 0 2500 0 0 835 0 835 -2500 0 -2500 0 0 -835z
m1031 580 c90 -47 90 -193 0 -240 -89 -45 -194 20 -194 120 0 100 105 165 194
120z m-541 -509 l0 -505 35 -3 c20 -2 36 -7 38 -13 1 -6 -69 -11 -190 -13
-167 -2 -193 0 -193 13 0 11 11 15 40 15 l40 0 -2 493 -3 492 -37 3 c-21 2
-38 7 -38 13 0 5 65 9 155 9 l155 0 0 -504z m1597 166 c23 -12 50 -32 60 -45
l17 -24 46 33 c61 44 128 64 209 64 88 0 155 -23 201 -71 62 -65 70 -106 70
-385 l0 -244 40 0 c29 0 40 -4 40 -15 0 -13 -28 -15 -190 -15 -162 0 -190 2
-190 15 0 10 11 15 35 15 l35 0 0 258 c0 144 -5 273 -10 294 -23 81 -114 112
-200 68 -54 -27 -70 -54 -59 -93 5 -18 9 -143 9 -279 l0 -248 40 0 c29 0 40
-4 40 -15 0 -13 -29 -15 -200 -15 -171 0 -200 2 -200 15 0 11 12 15 45 15 l45
0 0 251 c0 152 -4 268 -11 295 -28 112 -162 130 -244 32 l-27 -32 5 -271 c3
-148 6 -271 6 -272 1 -2 17 -3 36 -3 24 0 35 -5 35 -15 0 -13 -28 -15 -190
-15 -159 0 -190 2 -190 14 0 10 13 16 37 18 l37 3 1 325 0 325 -37 3 c-25 2
-38 8 -38 18 0 11 26 14 150 14 l150 0 1 -25 c1 -14 3 -29 4 -35 1 -5 3 -13 4
-17 1 -5 5 -3 9 2 12 19 70 55 109 70 59 23 216 15 270 -13z m1443 -10 c48
-23 59 -35 85 -87 l30 -60 5 -236 c5 -258 7 -265 63 -271 l32 -4 -40 -19 c-84
-38 -230 -20 -267 34 -13 19 -15 19 -56 -9 -109 -73 -288 -66 -362 14 -22 24
-25 37 -25 96 0 61 3 72 31 107 55 68 114 93 289 122 l100 17 3 49 c6 85 -15
206 -40 232 -29 31 -116 33 -142 4 -17 -19 -17 -23 -1 -77 28 -96 4 -152 -74
-175 -34 -10 -44 -9 -73 8 -18 10 -42 35 -52 55 -18 32 -19 40 -7 79 33 110
154 163 351 153 77 -4 105 -9 150 -32z m1086 14 c28 -13 64 -40 81 -61 53 -64
63 -122 63 -383 l0 -232 40 0 c29 0 40 -4 40 -15 0 -13 -28 -15 -195 -15 -167
0 -195 2 -195 15 0 11 11 15 40 15 l40 0 0 248 c0 277 -9 334 -58 372 -22 18
-37 21 -86 18 -54 -4 -62 -8 -97 -46 l-39 -41 0 -276 0 -275 40 0 c29 0 40 -4
40 -15 0 -13 -28 -15 -196 -15 -152 0 -195 3 -192 13 3 6 21 13 41 15 l37 3 0
330 0 329 -41 0 c-28 0 -39 4 -37 13 4 9 46 13 156 15 l152 3 0 -41 0 -41 34
26 c89 68 235 86 332 41z m-3528 -333 l2 -343 40 0 c29 0 40 -4 40 -15 0 -13
-28 -15 -195 -15 -167 0 -195 2 -195 15 0 11 11 15 40 15 l40 0 0 330 0 330
-30 0 c-20 0 -30 5 -30 15 0 13 20 15 143 13 l142 -3 3 -342z"/>
<path d="M3365 729 c-96 -18 -150 -63 -160 -133 -20 -130 107 -225 193 -146
21 19 22 29 22 150 0 71 -3 131 -7 133 -5 2 -26 0 -48 -4z"/>
</g>
</svg>
