<?xml version="1.0" encoding="UTF-8"?>
<!DOCTYPE svg PUBLIC "-//W3C//DTD SVG 1.1//EN" "http://www.w3.org/Graphics/SVG/1.1/DTD/svg11.dtd">
<svg xmlns="http://www.w3.org/2000/svg" version="1.1" width="500px" height="500px" style="shape-rendering:geometricPrecision; text-rendering:geometricPrecision; image-rendering:optimizeQuality; fill-rule:evenodd; clip-rule:evenodd" xmlns:xlink="http://www.w3.org/1999/xlink">
<g><path style="opacity:1" fill="#0f1416" d="M 366.5,89.5 C 366.056,90.8185 364.723,91.8185 362.5,92.5C 358.5,90.1667 354.5,87.8333 350.5,85.5C 283.335,84.5008 216.002,84.1675 148.5,84.5C 146.488,85.0138 144.488,85.1805 142.5,85C 143.337,83.9887 143.67,82.8221 143.5,81.5C 144.429,80.6851 145.429,79.8518 146.5,79C 215.167,78.3333 283.833,78.3333 352.5,79C 357.35,82.3634 362.017,85.8634 366.5,89.5 Z"/></g>
<g><path style="opacity:1" fill="#65abc5" d="M 148.5,84.5 C 216.002,84.1675 283.335,84.5008 350.5,85.5C 286.832,85.3333 223.166,85.5 159.5,86C 153.306,86.4806 147.639,87.6473 142.5,89.5C 144.5,87.8333 146.5,86.1667 148.5,84.5 Z"/></g>
<g><path style="opacity:1" fill="#56b1d0" d="M 350.5,85.5 C 354.5,87.8333 358.5,90.1667 362.5,92.5C 382.01,108.53 398.51,127.197 412,148.5C 418.008,158.685 422.508,169.519 425.5,181C 398.121,251.641 370.455,322.141 342.5,392.5C 341.49,395.33 339.823,397.83 337.5,400C 329.415,404.376 321.082,408.209 312.5,411.5C 269.832,411.667 227.165,411.5 184.5,411C 175.64,407.903 167.307,403.737 159.5,398.5C 130.453,326.226 101.787,253.726 73.5,181C 86.0846,142.59 109.085,112.09 142.5,89.5C 147.639,87.6473 153.306,86.4806 159.5,86C 223.166,85.5 286.832,85.3333 350.5,85.5 Z"/></g>
<g><path style="opacity:1" fill="#080a0d" d="M 324.5,384.5 C 274.832,384.667 225.166,384.5 175.5,384C 172.398,378.173 169.398,372.34 166.5,366.5C 140.777,302.701 115.277,238.701 90,174.5C 89.3333,173.167 89.3333,171.833 90,170.5C 106.956,147.422 123.789,124.255 140.5,101C 210.833,100.333 281.167,100.333 351.5,101C 370.38,124.592 389.38,148.092 408.5,171.5C 381.755,240.906 354.922,310.24 328,379.5C 327.303,381.584 326.136,383.251 324.5,384.5 Z"/></g>
<g><path style="opacity:1" fill="#57b1d0" d="M 188.5,179.5 C 214.663,178.337 240.997,178.17 267.5,179C 250.645,195.689 233.311,211.856 215.5,227.5C 206.474,211.441 197.474,195.441 188.5,179.5 Z"/></g>
<g><path style="opacity:1" fill="#a2a2a2" d="M 186.5,186.5 C 187.847,189.193 189.18,191.86 190.5,194.5C 189.196,195.987 188.03,197.654 187,199.5C 185.16,198.167 184.66,198.334 185.5,200C 182.567,201.271 179.901,202.938 177.5,205C 165.455,207.981 153.455,207.981 141.5,205C 131.863,201.011 122.196,197.178 112.5,193.5C 111.033,193.723 109.533,194.056 108,194.5C 107.333,193.833 106.667,193.167 106,192.5C 105.505,194.473 105.338,196.473 105.5,198.5C 102.796,192.733 100.462,186.733 98.5,180.5C 102.319,179.834 106.319,179.501 110.5,179.5C 116.162,179.294 121.662,179.961 127,181.5C 132.416,180.361 137.916,180.194 143.5,181C 139.5,181.333 135.5,181.667 131.5,182C 135.741,181.709 138.741,183.376 140.5,187C 144.348,189.367 148.014,191.867 151.5,194.5C 159.477,196.809 167.477,196.976 175.5,195C 180.207,193.091 183.041,189.591 184,184.5C 184.417,185.756 185.25,186.423 186.5,186.5 Z"/></g>
<g><path style="opacity:1" fill="#979797" d="M 186.5,186.5 C 185.25,186.423 184.417,185.756 184,184.5C 183.041,189.591 180.207,193.091 175.5,195C 167.477,196.976 159.477,196.809 151.5,194.5C 148.014,191.867 144.348,189.367 140.5,187C 138.741,183.376 135.741,181.709 131.5,182C 135.5,181.667 139.5,181.333 143.5,181C 137.916,180.194 132.416,180.361 127,181.5C 121.662,179.961 116.162,179.294 110.5,179.5C 106.319,179.501 102.319,179.834 98.5,180.5C 97.9569,180.44 97.6236,180.107 97.5,179.5C 125.827,178.333 154.161,178.167 182.5,179C 183.973,181.448 185.307,183.948 186.5,186.5 Z"/></g>
<g><path style="opacity:1" fill="#fafafa" d="M 314.5,142.5 C 316.134,145.738 315.134,147.905 311.5,149C 312.167,149.333 312.833,149.667 313.5,150C 305.502,170.841 300.169,193.341 297.5,217.5C 298.589,223.85 298.756,230.183 298,236.5C 299.068,239.871 300.235,243.204 301.5,246.5C 302.85,248.02 304.183,248.687 305.5,248.5C 304.798,250.776 304.965,253.109 306,255.5C 306.249,254.376 306.749,253.376 307.5,252.5C 307.833,252.667 308.167,252.833 308.5,253C 307.167,254 307.167,255 308.5,256C 306.381,256.342 306.047,257.175 307.5,258.5C 274.468,290.2 241.135,321.533 207.5,352.5C 206.061,351.491 204.728,351.824 203.5,353.5C 203.646,352.508 203.313,351.342 202.5,350C 212.386,320.34 221.886,290.506 231,260.5C 233.646,248.684 234.98,236.684 235,224.5C 235.692,223.975 236.192,223.308 236.5,222.5C 235.271,221.719 233.938,221.219 232.5,221C 234.89,219.89 235.89,218.39 235.5,216.5C 261.22,191.147 287.553,166.48 314.5,142.5 Z"/></g>
<g><path style="opacity:1" fill="#ededed" d="M 333.5,124.5 C 334.756,124.461 335.756,124.961 336.5,126C 335.167,126.667 333.833,127.333 332.5,128C 334.929,128.451 335.096,129.285 333,130.5C 332.667,130.167 332.333,129.833 332,129.5C 330.887,130.76 330.72,131.927 331.5,133C 328.855,133.591 328.189,134.925 329.5,137C 327.681,143.028 325.014,149.028 321.5,155C 321.061,160.574 319.561,166.074 317,171.5C 314.357,183.063 312.524,194.73 311.5,206.5C 312.1,213.249 313.266,219.916 315,226.5C 316.421,229.009 318.088,231.343 320,233.5C 322.429,234.029 324.262,235.363 325.5,237.5C 325.023,238.478 324.357,239.311 323.5,240C 324.634,241.016 324.301,241.683 322.5,242C 322.728,242.399 323.062,242.565 323.5,242.5C 318.5,248.167 313.167,253.5 307.5,258.5C 306.047,257.175 306.381,256.342 308.5,256C 307.167,255 307.167,254 308.5,253C 308.167,252.833 307.833,252.667 307.5,252.5C 306.749,253.376 306.249,254.376 306,255.5C 304.965,253.109 304.798,250.776 305.5,248.5C 304.183,248.687 302.85,248.02 301.5,246.5C 300.235,243.204 299.068,239.871 298,236.5C 298.756,230.183 298.589,223.85 297.5,217.5C 300.169,193.341 305.502,170.841 313.5,150C 312.833,149.667 312.167,149.333 311.5,149C 315.134,147.905 316.134,145.738 314.5,142.5C 320.202,135.797 326.536,129.797 333.5,124.5 Z"/></g>
<g><path style="opacity:1" fill="#d0d0d0" d="M 380.5,144.5 C 378.944,145.291 377.61,145.624 376.5,145.5C 377.782,147.179 378.782,149.013 379.5,151C 378.692,151.308 378.025,151.808 377.5,152.5C 374.688,158.471 372.188,164.471 370,170.5C 367.617,174.711 365.117,178.877 362.5,183C 362.957,183.414 363.291,183.914 363.5,184.5C 361.806,186.554 360.639,188.888 360,191.5C 357.46,193.705 355.293,196.205 353.5,199C 350.209,201.074 347.043,200.908 344,198.5C 343.667,198.833 343.333,199.167 343,199.5C 341.667,198.167 340.333,196.833 339,195.5C 336.967,189.802 335.467,183.969 334.5,178C 336.521,172.344 337.855,166.511 338.5,160.5C 338.291,159.914 337.957,159.414 337.5,159C 341.504,150.686 345.337,142.186 349,133.5C 351.442,130.952 353.108,127.952 354,124.5C 355.067,123.809 356.234,123.309 357.5,123C 356.475,120.929 355.642,118.762 355,116.5C 352.732,114.465 350.899,112.132 349.5,109.5C 350.189,108.226 351.023,108.226 352,109.5C 361.713,121.041 371.213,132.707 380.5,144.5 Z"/></g>
<g><path style="opacity:1" fill="#e3e3e3" d="M 339.5,118.5 C 341.153,119.605 342.82,119.771 344.5,119C 343.167,120.333 341.833,121.667 340.5,123C 340.112,124.525 340.112,126.192 340.5,128C 336.087,134.66 332.587,141.826 330,149.5C 327.632,158.317 324.966,166.983 322,175.5C 317.471,190.118 318.805,204.118 326,217.5C 327.946,220.969 330.779,223.136 334.5,224C 335.362,226.734 336.195,226.901 337,224.5C 337.333,225.167 337.667,225.833 338,226.5C 338.977,225.226 339.811,225.226 340.5,226.5C 335.443,232.559 329.776,237.893 323.5,242.5C 323.062,242.565 322.728,242.399 322.5,242C 324.301,241.683 324.634,241.016 323.5,240C 324.357,239.311 325.023,238.478 325.5,237.5C 324.262,235.363 322.429,234.029 320,233.5C 318.088,231.343 316.421,229.009 315,226.5C 313.266,219.916 312.1,213.249 311.5,206.5C 312.524,194.73 314.357,183.063 317,171.5C 319.561,166.074 321.061,160.574 321.5,155C 325.014,149.028 327.681,143.028 329.5,137C 328.189,134.925 328.855,133.591 331.5,133C 330.72,131.927 330.887,130.76 332,129.5C 332.333,129.833 332.667,130.167 333,130.5C 335.096,129.285 334.929,128.451 332.5,128C 333.833,127.333 335.167,126.667 336.5,126C 335.756,124.961 334.756,124.461 333.5,124.5C 335.167,122.167 337.167,120.167 339.5,118.5 Z"/></g>
<g><path style="opacity:1" fill="#d9d9d9" d="M 349.5,109.5 C 350.899,112.132 352.732,114.465 355,116.5C 355.642,118.762 356.475,120.929 357.5,123C 356.234,123.309 355.067,123.809 354,124.5C 353.108,127.952 351.442,130.952 349,133.5C 345.337,142.186 341.504,150.686 337.5,159C 337.957,159.414 338.291,159.914 338.5,160.5C 337.855,166.511 336.521,172.344 334.5,178C 335.467,183.969 336.967,189.802 339,195.5C 340.333,196.833 341.667,198.167 343,199.5C 343.333,199.167 343.667,198.833 344,198.5C 347.043,200.908 350.209,201.074 353.5,199C 355.293,196.205 357.46,193.705 360,191.5C 360.639,188.888 361.806,186.554 363.5,184.5C 363.291,183.914 362.957,183.414 362.5,183C 365.117,178.877 367.617,174.711 370,170.5C 372.188,164.471 374.688,158.471 377.5,152.5C 378.025,151.808 378.692,151.308 379.5,151C 378.782,149.013 377.782,147.179 376.5,145.5C 377.61,145.624 378.944,145.291 380.5,144.5C 387.288,153.126 394.288,161.626 401.5,170C 381.251,189.089 360.917,207.922 340.5,226.5C 339.811,225.226 338.977,225.226 338,226.5C 337.667,225.833 337.333,225.167 337,224.5C 336.195,226.901 335.362,226.734 334.5,224C 330.779,223.136 327.946,220.969 326,217.5C 318.805,204.118 317.471,190.118 322,175.5C 324.966,166.983 327.632,158.317 330,149.5C 332.587,141.826 336.087,134.66 340.5,128C 340.112,126.192 340.112,124.525 340.5,123C 341.833,121.667 343.167,120.333 344.5,119C 342.82,119.771 341.153,119.605 339.5,118.5C 342.211,114.788 345.544,111.788 349.5,109.5 Z"/></g>
<g><path style="opacity:1" fill="#a1a1a1" d="M 143.5,106.5 C 210.335,105.168 277.335,105.168 344.5,106.5C 321.344,128.822 298.011,150.988 274.5,173C 257.837,173.5 241.17,173.667 224.5,173.5C 232.316,172.508 240.316,172.174 248.5,172.5C 253.511,172.666 258.511,172.499 263.5,172C 262.701,170.251 263.368,168.918 265.5,168C 264.093,163.464 264.26,158.964 266,154.5C 267,154.167 268,153.833 269,153.5C 272.139,145.193 277.973,139.86 286.5,137.5C 285.167,134.833 285.833,134.167 288.5,135.5C 289.891,133.11 291.891,131.443 294.5,130.5C 295.386,129.675 295.719,128.675 295.5,127.5C 298.106,126.864 300.606,126.864 303,127.5C 303.483,126.552 303.649,125.552 303.5,124.5C 308.103,122.575 312.769,120.742 317.5,119C 320.405,116.25 323.405,113.75 326.5,111.5C 328.13,113.681 329.463,113.681 330.5,111.5C 329.624,110.749 328.624,110.249 327.5,110C 332.229,109.727 336.896,109.061 341.5,108C 327.658,106.519 313.658,106.019 299.5,106.5C 290.167,106.5 280.833,106.5 271.5,106.5C 263.5,106.5 255.5,106.5 247.5,106.5C 226.167,106.5 204.833,106.5 183.5,106.5C 170.167,106.5 156.833,106.5 143.5,106.5 Z"/></g>
<g><path style="opacity:1" fill="#cfcfcf" d="M 247.5,106.5 C 255.5,106.5 263.5,106.5 271.5,106.5C 272.6,107.558 273.934,108.392 275.5,109C 271.848,109.499 268.182,109.665 264.5,109.5C 264.649,110.552 264.483,111.552 264,112.5C 261.293,113.437 258.793,114.77 256.5,116.5C 246.458,130.19 235.791,143.19 224.5,155.5C 221.547,160.488 220.214,165.655 220.5,171C 213.281,172.429 205.947,172.929 198.5,172.5C 199.602,170.908 198.935,170.075 196.5,170C 198.167,169.667 199.833,169.333 201.5,169C 200.342,167.991 199.675,166.658 199.5,165C 200.659,160.854 201.825,156.688 203,152.5C 205.675,149.609 208.842,147.443 212.5,146C 212.967,142.535 214.967,140.868 218.5,141C 224.817,134.787 229.817,128.287 233.5,121.5C 236.048,118.241 238.714,115.074 241.5,112C 240.026,110.684 238.359,109.684 236.5,109C 240.28,108.082 243.946,107.249 247.5,106.5 Z"/></g>
<g><path style="opacity:1" fill="#bebebe" d="M 271.5,106.5 C 280.833,106.5 290.167,106.5 299.5,106.5C 300.739,107.212 301.239,108.212 301,109.5C 300.667,109.167 300.333,108.833 300,108.5C 297.932,109.394 295.765,110.06 293.5,110.5C 288.774,112.863 284.108,115.196 279.5,117.5C 279.719,118.675 279.386,119.675 278.5,120.5C 275.829,122.662 272.995,124.662 270,126.5C 264.656,133.206 259.322,139.873 254,146.5C 250.72,153.004 248.22,159.837 246.5,167C 246.095,167.945 245.428,168.612 244.5,169C 249.833,169.667 249.833,170.333 244.5,171C 246.058,171.21 247.391,171.71 248.5,172.5C 240.316,172.174 232.316,172.508 224.5,173.5C 181.33,173.832 138.33,173.499 95.5,172.5C 117.5,172.5 139.5,172.5 161.5,172.5C 173.833,172.5 186.167,172.5 198.5,172.5C 205.947,172.929 213.281,172.429 220.5,171C 220.214,165.655 221.547,160.488 224.5,155.5C 235.791,143.19 246.458,130.19 256.5,116.5C 258.793,114.77 261.293,113.437 264,112.5C 264.483,111.552 264.649,110.552 264.5,109.5C 268.182,109.665 271.848,109.499 275.5,109C 273.934,108.392 272.6,107.558 271.5,106.5 Z"/></g>
<g><path style="opacity:1" fill="#dddddd" d="M 183.5,106.5 C 204.833,106.5 226.167,106.5 247.5,106.5C 243.946,107.249 240.28,108.082 236.5,109C 238.359,109.684 240.026,110.684 241.5,112C 238.714,115.074 236.048,118.241 233.5,121.5C 229.817,128.287 224.817,134.787 218.5,141C 214.967,140.868 212.967,142.535 212.5,146C 208.842,147.443 205.675,149.609 203,152.5C 201.825,156.688 200.659,160.854 199.5,165C 199.675,166.658 200.342,167.991 201.5,169C 199.833,169.333 198.167,169.667 196.5,170C 198.935,170.075 199.602,170.908 198.5,172.5C 186.167,172.5 173.833,172.5 161.5,172.5C 161.082,171.778 160.416,171.278 159.5,171C 160.167,170.667 160.833,170.333 161.5,170C 160.484,169.481 159.818,168.647 159.5,167.5C 162.054,154.34 165.72,141.507 170.5,129C 174.428,124.081 177.928,118.915 181,113.5C 183.203,111.666 185.37,109.832 187.5,108C 185.942,107.79 184.609,107.29 183.5,106.5 Z"/></g>
<g><path style="opacity:1" fill="#adadac" d="M 299.5,106.5 C 313.658,106.019 327.658,106.519 341.5,108C 336.896,109.061 332.229,109.727 327.5,110C 328.624,110.249 329.624,110.749 330.5,111.5C 329.463,113.681 328.13,113.681 326.5,111.5C 323.405,113.75 320.405,116.25 317.5,119C 312.769,120.742 308.103,122.575 303.5,124.5C 303.649,125.552 303.483,126.552 303,127.5C 300.606,126.864 298.106,126.864 295.5,127.5C 295.719,128.675 295.386,129.675 294.5,130.5C 291.891,131.443 289.891,133.11 288.5,135.5C 285.833,134.167 285.167,134.833 286.5,137.5C 277.973,139.86 272.139,145.193 269,153.5C 268,153.833 267,154.167 266,154.5C 264.26,158.964 264.093,163.464 265.5,168C 263.368,168.918 262.701,170.251 263.5,172C 258.511,172.499 253.511,172.666 248.5,172.5C 247.391,171.71 246.058,171.21 244.5,171C 249.833,170.333 249.833,169.667 244.5,169C 245.428,168.612 246.095,167.945 246.5,167C 248.22,159.837 250.72,153.004 254,146.5C 259.322,139.873 264.656,133.206 270,126.5C 272.995,124.662 275.829,122.662 278.5,120.5C 279.386,119.675 279.719,118.675 279.5,117.5C 284.108,115.196 288.774,112.863 293.5,110.5C 295.765,110.06 297.932,109.394 300,108.5C 300.333,108.833 300.667,109.167 301,109.5C 301.239,108.212 300.739,107.212 299.5,106.5 Z"/></g>
<g><path style="opacity:1" fill="#f3f3f3" d="M 143.5,106.5 C 156.833,106.5 170.167,106.5 183.5,106.5C 184.609,107.29 185.942,107.79 187.5,108C 185.37,109.832 183.203,111.666 181,113.5C 177.928,118.915 174.428,124.081 170.5,129C 165.72,141.507 162.054,154.34 159.5,167.5C 159.818,168.647 160.484,169.481 161.5,170C 160.833,170.333 160.167,170.667 159.5,171C 160.416,171.278 161.082,171.778 161.5,172.5C 139.5,172.5 117.5,172.5 95.5,172.5C 111.145,150.196 127.145,128.196 143.5,106.5 Z"/></g>
<g><path style="opacity:1" fill="#afafaf" d="M 190.5,194.5 C 192.405,197.304 194.071,200.304 195.5,203.5C 193.589,203.426 192.422,202.426 192,200.5C 191.349,202.235 191.515,203.902 192.5,205.5C 191.675,206.386 190.675,206.719 189.5,206.5C 189.617,208.484 188.95,210.15 187.5,211.5C 180.755,218.577 172.588,222.91 163,224.5C 155.984,223.943 149.817,221.443 144.5,217C 139.655,215.038 134.655,213.538 129.5,212.5C 128.09,212.132 127.09,211.299 126.5,210C 122.83,209.811 119.33,208.977 116,207.5C 113.915,208.124 112.082,209.124 110.5,210.5C 108.321,206.797 106.655,202.797 105.5,198.5C 105.338,196.473 105.505,194.473 106,192.5C 106.667,193.167 107.333,193.833 108,194.5C 109.533,194.056 111.033,193.723 112.5,193.5C 122.196,197.178 131.863,201.011 141.5,205C 153.455,207.981 165.455,207.981 177.5,205C 179.901,202.938 182.567,201.271 185.5,200C 184.66,198.334 185.16,198.167 187,199.5C 188.03,197.654 189.196,195.987 190.5,194.5 Z"/></g>
<g><path style="opacity:1" fill="#898989" d="M 393.5,195.5 C 391.871,200.735 389.871,205.735 387.5,210.5C 387.649,209.448 387.483,208.448 387,207.5C 386.065,210.102 384.232,211.602 381.5,212C 374.538,219.963 367.205,227.63 359.5,235C 352.605,241.567 345.439,247.734 338,253.5C 328.331,266.83 319.664,280.83 312,295.5C 312.634,301.848 312.467,308.182 311.5,314.5C 305.833,314.5 300.167,314.5 294.5,314.5C 296.222,308.295 298.555,302.295 301.5,296.5C 312.084,281.001 322.918,265.668 334,250.5C 340.807,244.202 346.973,237.536 352.5,230.5C 353.5,230.5 354.5,230.5 355.5,230.5C 355.351,229.448 355.517,228.448 356,227.5C 356.333,227.833 356.667,228.167 357,228.5C 360.169,224.987 362.502,220.987 364,216.5C 365.419,215.54 366.919,214.707 368.5,214C 366.071,213.549 365.904,212.715 368,211.5C 369.399,211.501 370.899,211.835 372.5,212.5C 375.799,208.407 379.299,204.407 383,200.5C 383.333,199.167 383.667,197.833 384,196.5C 385.163,198.285 385.83,200.285 386,202.5C 386.64,198.651 388.14,194.984 390.5,191.5C 391.5,191.5 392.5,191.5 393.5,191.5C 393.5,192.833 393.5,194.167 393.5,195.5 Z"/></g>
<g><path style="opacity:1" fill="#bcbcbc" d="M 195.5,203.5 C 197.42,206.339 199.087,209.339 200.5,212.5C 199.603,213.598 198.77,213.598 198,212.5C 196.398,217.931 195.065,218.265 194,213.5C 193.517,214.448 193.351,215.448 193.5,216.5C 186.86,219.95 180.86,224.45 175.5,230C 165.048,235.217 154.215,237.717 143,237.5C 140,234.833 137,232.167 134,229.5C 133.51,228.207 133.343,226.873 133.5,225.5C 129.73,223.792 125.73,222.459 121.5,221.5C 118.646,221.355 116.979,222.688 116.5,225.5C 113.734,220.883 111.734,215.883 110.5,210.5C 112.082,209.124 113.915,208.124 116,207.5C 119.33,208.977 122.83,209.811 126.5,210C 127.09,211.299 128.09,212.132 129.5,212.5C 134.655,213.538 139.655,215.038 144.5,217C 149.817,221.443 155.984,223.943 163,224.5C 172.588,222.91 180.755,218.577 187.5,211.5C 188.95,210.15 189.617,208.484 189.5,206.5C 190.675,206.719 191.675,206.386 192.5,205.5C 191.515,203.902 191.349,202.235 192,200.5C 192.422,202.426 193.589,203.426 195.5,203.5 Z"/></g>
<g><path style="opacity:1" fill="#c8c9c8" d="M 200.5,212.5 C 201.752,214.001 202.752,215.668 203.5,217.5C 199.155,219.516 194.822,221.682 190.5,224C 178.942,237.535 164.442,246.368 147,250.5C 142.423,249.823 137.923,248.823 133.5,247.5C 131.21,246.258 129.377,244.592 128,242.5C 125.863,244.321 125.03,246.654 125.5,249.5C 121.733,241.874 118.733,233.874 116.5,225.5C 116.979,222.688 118.646,221.355 121.5,221.5C 125.73,222.459 129.73,223.792 133.5,225.5C 133.343,226.873 133.51,228.207 134,229.5C 137,232.167 140,234.833 143,237.5C 154.215,237.717 165.048,235.217 175.5,230C 180.86,224.45 186.86,219.95 193.5,216.5C 193.351,215.448 193.517,214.448 194,213.5C 195.065,218.265 196.398,217.931 198,212.5C 198.77,213.598 199.603,213.598 200.5,212.5 Z"/></g>
<g><path style="opacity:1" fill="#d7d7d7" d="M 203.5,217.5 C 204.5,219.5 205.5,221.5 206.5,223.5C 203.575,223.46 200.909,224.293 198.5,226C 188.146,238.686 176.813,250.353 164.5,261C 160.358,263.573 156.024,265.906 151.5,268C 147.167,269 142.833,270 138.5,271C 137.351,274.178 137.351,278.011 138.5,282.5C 133.931,271.679 129.598,260.679 125.5,249.5C 125.03,246.654 125.863,244.321 128,242.5C 129.377,244.592 131.21,246.258 133.5,247.5C 137.923,248.823 142.423,249.823 147,250.5C 164.442,246.368 178.942,237.535 190.5,224C 194.822,221.682 199.155,219.516 203.5,217.5 Z"/></g>
<g><path style="opacity:1" fill="#737373" d="M 393.5,195.5 C 393.5,194.167 393.5,192.833 393.5,191.5C 392.5,191.5 391.5,191.5 390.5,191.5C 388.14,194.984 386.64,198.651 386,202.5C 385.83,200.285 385.163,198.285 384,196.5C 383.667,197.833 383.333,199.167 383,200.5C 379.299,204.407 375.799,208.407 372.5,212.5C 370.899,211.835 369.399,211.501 368,211.5C 365.904,212.715 366.071,213.549 368.5,214C 366.919,214.707 365.419,215.54 364,216.5C 362.502,220.987 360.169,224.987 357,228.5C 356.667,228.167 356.333,227.833 356,227.5C 355.517,228.448 355.351,229.448 355.5,230.5C 354.5,230.5 353.5,230.5 352.5,230.5C 346.973,237.536 340.807,244.202 334,250.5C 322.918,265.668 312.084,281.001 301.5,296.5C 298.555,302.295 296.222,308.295 294.5,314.5C 290.486,314.666 286.486,314.499 282.5,314C 283.804,313.196 284.471,312.029 284.5,310.5C 282.498,305.993 283.998,303.659 289,303.5C 299.382,288.264 309.882,273.598 320.5,259.5C 321.005,256.812 322.338,254.645 324.5,253C 323.944,252.617 323.611,252.117 323.5,251.5C 348.468,227.367 373.635,203.367 399,179.5C 398.018,185.129 396.185,190.462 393.5,195.5 Z"/></g>
<g><path style="opacity:1" fill="#ececec" d="M 235.5,216.5 C 235.89,218.39 234.89,219.89 232.5,221C 233.938,221.219 235.271,221.719 236.5,222.5C 236.192,223.308 235.692,223.975 235,224.5C 234.98,236.684 233.646,248.684 231,260.5C 221.886,290.506 212.386,320.34 202.5,350C 203.313,351.342 203.646,352.508 203.5,353.5C 204.728,351.824 206.061,351.491 207.5,352.5C 200.159,359.841 192.492,366.841 184.5,373.5C 183.448,373.649 182.448,373.483 181.5,373C 182.471,371.796 183.471,371.296 184.5,371.5C 182.978,369.844 183.311,368.677 185.5,368C 184.715,365.557 184.881,363.057 186,360.5C 197.695,328.415 208.362,296.081 218,263.5C 219.941,254.333 219.941,245.333 218,236.5C 218.368,237.91 219.201,238.91 220.5,239.5C 221.48,236.914 221.813,234.247 221.5,231.5C 223.824,231.338 225.491,230.172 226.5,228C 225.944,227.617 225.611,227.117 225.5,226.5C 228.5,222.833 231.833,219.5 235.5,216.5 Z"/></g>
<g><path style="opacity:1" fill="#b8b8b8" d="M 380.5,228.5 C 379.068,234.141 377.068,239.475 374.5,244.5C 373.992,242.767 373.159,242.434 372,243.5C 371.456,238.482 370.289,238.482 368.5,243.5C 359.496,250.675 350.663,258.008 342,265.5C 337.178,271.477 333.678,278.144 331.5,285.5C 332.108,288.326 333.108,290.992 334.5,293.5C 338.493,297.324 342.66,300.991 347,304.5C 347.333,305.5 347.667,306.5 348,307.5C 348.876,305.365 350.376,304.031 352.5,303.5C 350.623,307.155 348.957,310.822 347.5,314.5C 343.5,314.5 339.5,314.5 335.5,314.5C 335.525,312.918 335.691,311.251 336,309.5C 332.69,304.194 328.69,299.527 324,295.5C 323.743,289.19 325.076,283.19 328,277.5C 331.167,272.5 334.333,267.5 337.5,262.5C 342.685,258.149 347.351,253.316 351.5,248C 353.246,247.529 354.913,246.862 356.5,246C 363.044,239.951 369.711,234.118 376.5,228.5C 377.865,227.193 379.198,227.193 380.5,228.5 Z"/></g>
<g><path style="opacity:1" fill="#dfdfdf" d="M 225.5,226.5 C 225.611,227.117 225.944,227.617 226.5,228C 225.491,230.172 223.824,231.338 221.5,231.5C 221.813,234.247 221.48,236.914 220.5,239.5C 219.201,238.91 218.368,237.91 218,236.5C 219.941,245.333 219.941,254.333 218,263.5C 208.362,296.081 197.695,328.415 186,360.5C 184.881,363.057 184.715,365.557 185.5,368C 183.311,368.677 182.978,369.844 184.5,371.5C 183.471,371.296 182.471,371.796 181.5,373C 182.448,373.483 183.448,373.649 184.5,373.5C 182.498,376.334 179.998,378.667 177,380.5C 173.67,373.339 170.836,366.006 168.5,358.5C 174.005,349.043 178.838,339.377 183,329.5C 183.266,324.931 184.266,320.597 186,316.5C 193.163,301.212 198.496,285.212 202,268.5C 202.802,263.581 202.635,258.748 201.5,254C 204.959,254.734 205.293,253.734 202.5,251C 203.38,249.644 203.714,248.144 203.5,246.5C 210.508,239.492 217.842,232.826 225.5,226.5 Z"/></g>
<g><path style="opacity:1" fill="#d7d7d7" d="M 203.5,246.5 C 203.714,248.144 203.38,249.644 202.5,251C 205.293,253.734 204.959,254.734 201.5,254C 202.635,258.748 202.802,263.581 202,268.5C 198.496,285.212 193.163,301.212 186,316.5C 184.266,320.597 183.266,324.931 183,329.5C 178.838,339.377 174.005,349.043 168.5,358.5C 160.748,339.812 153.082,320.979 145.5,302C 164.637,283.364 183.971,264.864 203.5,246.5 Z"/></g>
<g><path style="opacity:1" fill="#e9e9e9" d="M 206.5,223.5 C 207.777,226.553 209.444,229.386 211.5,232C 189.167,253 166.833,274 144.5,295C 143.517,295.591 142.85,295.257 142.5,294C 141.006,290.188 139.673,286.355 138.5,282.5C 137.351,278.011 137.351,274.178 138.5,271C 142.833,270 147.167,269 151.5,268C 156.024,265.906 160.358,263.573 164.5,261C 176.813,250.353 188.146,238.686 198.5,226C 200.909,224.293 203.575,223.46 206.5,223.5 Z"/></g>
<g><path style="opacity:1" fill="#d0d0d0" d="M 374.5,244.5 C 372.675,249.986 370.675,255.319 368.5,260.5C 368.217,259.711 367.717,259.044 367,258.5C 359.378,262.644 352.711,267.977 347,274.5C 345.241,279.717 344.574,285.051 345,290.5C 347.319,294.995 350.819,296.328 355.5,294.5C 354.304,297.421 353.304,300.421 352.5,303.5C 350.376,304.031 348.876,305.365 348,307.5C 347.667,306.5 347.333,305.5 347,304.5C 342.66,300.991 338.493,297.324 334.5,293.5C 333.108,290.992 332.108,288.326 331.5,285.5C 333.678,278.144 337.178,271.477 342,265.5C 350.663,258.008 359.496,250.675 368.5,243.5C 370.289,238.482 371.456,238.482 372,243.5C 373.159,242.434 373.992,242.767 374.5,244.5 Z"/></g>
<g><path style="opacity:1" fill="#9f9f9f" d="M 387.5,210.5 C 385.93,216.891 383.596,222.891 380.5,228.5C 379.198,227.193 377.865,227.193 376.5,228.5C 369.711,234.118 363.044,239.951 356.5,246C 354.913,246.862 353.246,247.529 351.5,248C 347.351,253.316 342.685,258.149 337.5,262.5C 334.333,267.5 331.167,272.5 328,277.5C 325.076,283.19 323.743,289.19 324,295.5C 328.69,299.527 332.69,304.194 336,309.5C 335.691,311.251 335.525,312.918 335.5,314.5C 327.5,314.5 319.5,314.5 311.5,314.5C 312.467,308.182 312.634,301.848 312,295.5C 319.664,280.83 328.331,266.83 338,253.5C 345.439,247.734 352.605,241.567 359.5,235C 367.205,227.63 374.538,219.963 381.5,212C 384.232,211.602 386.065,210.102 387,207.5C 387.483,208.448 387.649,209.448 387.5,210.5 Z"/></g>
<g><path style="opacity:1" fill="#e0e0e0" d="M 368.5,260.5 C 364.156,271.872 359.822,283.205 355.5,294.5C 350.819,296.328 347.319,294.995 345,290.5C 344.574,285.051 345.241,279.717 347,274.5C 352.711,267.977 359.378,262.644 367,258.5C 367.717,259.044 368.217,259.711 368.5,260.5 Z"/></g>
<g><path style="opacity:0.999" fill="#111517" d="M 143.5,81.5 C 143.67,82.8221 143.337,83.9887 142.5,85C 144.488,85.1805 146.488,85.0138 148.5,84.5C 146.5,86.1667 144.5,87.8333 142.5,89.5C 109.085,112.09 86.0846,142.59 73.5,181C 101.787,253.726 130.453,326.226 159.5,398.5C 167.307,403.737 175.64,407.903 184.5,411C 227.165,411.5 269.832,411.667 312.5,411.5C 268.155,412.818 223.655,412.818 179,411.5C 177.833,411.667 176.667,411.833 175.5,412C 176.056,412.383 176.389,412.883 176.5,413.5C 168.117,410.563 160.617,406.229 154,400.5C 124.871,327.613 96.0379,254.613 67.5,181.5C 73.4702,159.557 83.6368,139.89 98,122.5C 111.195,106.462 126.362,92.7957 143.5,81.5 Z"/></g>
<g><path style="opacity:1" fill="#606060" d="M 323.5,251.5 C 323.611,252.117 323.944,252.617 324.5,253C 322.338,254.645 321.005,256.812 320.5,259.5C 309.882,273.598 299.382,288.264 289,303.5C 283.998,303.659 282.498,305.993 284.5,310.5C 284.471,312.029 283.804,313.196 282.5,314C 286.486,314.499 290.486,314.666 294.5,314.5C 300.167,314.5 305.833,314.5 311.5,314.5C 319.5,314.5 327.5,314.5 335.5,314.5C 339.5,314.5 343.5,314.5 347.5,314.5C 323.663,315.829 299.663,315.829 275.5,314.5C 278.902,305.128 282.402,295.795 286,286.5C 298.39,274.606 310.89,262.94 323.5,251.5 Z"/></g>
<g><path style="opacity:1" fill="#57a7c2" d="M 275.5,295.5 C 274.412,301.782 272.412,308.116 269.5,314.5C 264.833,315.833 260.167,315.833 255.5,314.5C 262.214,308.117 268.88,301.784 275.5,295.5 Z"/></g>
<g><path style="opacity:1" fill="#818181" d="M 295.5,320.5 C 295.762,321.978 295.429,323.311 294.5,324.5C 291.14,328.693 287.973,333.026 285,337.5C 270.736,352.103 255.903,365.936 240.5,379C 246.491,379.499 252.491,379.666 258.5,379.5C 261.833,379.5 265.167,379.5 268.5,379.5C 271.833,379.5 275.167,379.5 278.5,379.5C 281.167,379.5 283.833,379.5 286.5,379.5C 298.5,379.5 310.5,379.5 322.5,379.5C 277.335,380.665 232.002,380.831 186.5,380C 207.469,360.698 228.136,341.032 248.5,321C 264.163,320.5 279.83,320.333 295.5,320.5 Z"/></g>
<g><path style="opacity:1" fill="#a5a5a5" d="M 295.5,320.5 C 298.5,320.5 301.5,320.5 304.5,320.5C 299.576,330.254 293.909,339.588 287.5,348.5C 278.094,359.234 268.428,369.567 258.5,379.5C 252.491,379.666 246.491,379.499 240.5,379C 255.903,365.936 270.736,352.103 285,337.5C 287.973,333.026 291.14,328.693 294.5,324.5C 295.429,323.311 295.762,321.978 295.5,320.5 Z"/></g>
<g><path style="opacity:1" fill="#bbbbbb" d="M 304.5,320.5 C 308.167,320.5 311.833,320.5 315.5,320.5C 315.918,321.222 316.584,321.722 317.5,322C 312.167,322.667 312.167,323.333 317.5,324C 316.167,324.333 314.833,324.667 313.5,325C 313.611,329.302 311.444,332.469 307,334.5C 294.762,349.913 281.928,364.913 268.5,379.5C 265.167,379.5 261.833,379.5 258.5,379.5C 268.428,369.567 278.094,359.234 287.5,348.5C 293.909,339.588 299.576,330.254 304.5,320.5 Z"/></g>
<g><path style="opacity:1" fill="#c8c8c8" d="M 315.5,320.5 C 319.5,320.5 323.5,320.5 327.5,320.5C 326.379,325.814 324.213,331.148 321,336.5C 311.927,346.076 302.427,355.076 292.5,363.5C 287.416,368.577 282.749,373.91 278.5,379.5C 275.167,379.5 271.833,379.5 268.5,379.5C 281.928,364.913 294.762,349.913 307,334.5C 311.444,332.469 313.611,329.302 313.5,325C 314.833,324.667 316.167,324.333 317.5,324C 312.167,323.333 312.167,322.667 317.5,322C 316.584,321.722 315.918,321.222 315.5,320.5 Z"/></g>
<g><path style="opacity:1" fill="#d5d5d5" d="M 327.5,320.5 C 330.5,320.5 333.5,320.5 336.5,320.5C 336.631,321.239 336.464,321.906 336,322.5C 333.871,321.137 333.371,321.471 334.5,323.5C 331.354,331.129 327.187,338.129 322,344.5C 310.225,356.268 298.058,367.435 285.5,378C 286.056,378.383 286.389,378.883 286.5,379.5C 283.833,379.5 281.167,379.5 278.5,379.5C 282.749,373.91 287.416,368.577 292.5,363.5C 302.427,355.076 311.927,346.076 321,336.5C 324.213,331.148 326.379,325.814 327.5,320.5 Z"/></g>
<g><path style="opacity:0.999" fill="#131517" d="M 366.5,89.5 C 398.307,112.978 419.974,143.645 431.5,181.5C 402.849,255.623 373.516,329.456 343.5,403C 338.298,406.101 332.965,408.934 327.5,411.5C 326.243,409.632 326.576,407.965 328.5,406.5C 331.163,404.379 333.996,403.713 337,404.5C 338.255,403.789 339.421,402.956 340.5,402C 340.167,401.667 339.833,401.333 339.5,401C 341.585,398.581 342.585,395.747 342.5,392.5C 370.455,322.141 398.121,251.641 425.5,181C 422.508,169.519 418.008,158.685 412,148.5C 398.51,127.197 382.01,108.53 362.5,92.5C 364.723,91.8185 366.056,90.8185 366.5,89.5 Z"/></g>
<g><path style="opacity:1" fill="#e3e3e3" d="M 336.5,320.5 C 339.518,320.335 342.518,320.502 345.5,321C 337.928,340.551 330.261,360.051 322.5,379.5C 310.5,379.5 298.5,379.5 286.5,379.5C 286.389,378.883 286.056,378.383 285.5,378C 298.058,367.435 310.225,356.268 322,344.5C 327.187,338.129 331.354,331.129 334.5,323.5C 333.371,321.471 333.871,321.137 336,322.5C 336.464,321.906 336.631,321.239 336.5,320.5 Z"/></g>
<g><path style="opacity:1" fill="#01131b" d="M 166.5,366.5 C 169.398,372.34 172.398,378.173 175.5,384C 225.166,384.5 274.832,384.667 324.5,384.5C 274.003,385.499 223.336,385.832 172.5,385.5C 170.5,379.167 168.5,372.833 166.5,366.5 Z"/></g>
<g><path style="opacity:1" fill="#121314" d="M 342.5,392.5 C 342.585,395.747 341.585,398.581 339.5,401C 339.833,401.333 340.167,401.667 340.5,402C 339.421,402.956 338.255,403.789 337,404.5C 333.996,403.713 331.163,404.379 328.5,406.5C 326.576,407.965 326.243,409.632 327.5,411.5C 323.192,413.318 318.859,415.152 314.5,417C 271.167,417.667 227.833,417.667 184.5,417C 181.69,416.094 179.024,414.927 176.5,413.5C 176.389,412.883 176.056,412.383 175.5,412C 176.667,411.833 177.833,411.667 179,411.5C 223.655,412.818 268.155,412.818 312.5,411.5C 321.082,408.209 329.415,404.376 337.5,400C 339.823,397.83 341.49,395.33 342.5,392.5 Z"/></g>
</svg>
