<?xml version="1.0" encoding="UTF-8"?>
<!DOCTYPE svg PUBLIC "-//W3C//DTD SVG 1.1//EN" "http://www.w3.org/Graphics/SVG/1.1/DTD/svg11.dtd">
<svg xmlns="http://www.w3.org/2000/svg" version="1.1" width="350px" height="109px" style="shape-rendering:geometricPrecision; text-rendering:geometricPrecision; image-rendering:optimizeQuality; fill-rule:evenodd; clip-rule:evenodd" xmlns:xlink="http://www.w3.org/1999/xlink">
<g><path style="opacity:0.998" fill="#060b0b" d="M 24.5,78.5 C 38.8333,78.5 53.1667,78.5 67.5,78.5C 67.5,82.5 67.5,86.5 67.5,90.5C 48.5,90.5 29.5,90.5 10.5,90.5C 10.5,66.5 10.5,42.5 10.5,18.5C 14.8333,18.5 19.1667,18.5 23.5,18.5C 23.1695,38.6736 23.5029,58.6736 24.5,78.5 Z"/></g>
<g><path style="opacity:0.98" fill="#cfcfcf" d="M 91.5,32.5 C 91.5,27.8333 91.5,23.1667 91.5,18.5C 86.1667,18.5 80.8333,18.5 75.5,18.5C 75.5,23.1667 75.5,27.8333 75.5,32.5C 74.5128,27.6946 74.1795,22.6946 74.5,17.5C 80.5092,17.3338 86.5092,17.5005 92.5,18C 93.1344,20.0745 93.4677,22.2412 93.5,24.5C 93.7135,27.5267 93.0468,30.1934 91.5,32.5 Z"/></g>
<g><path style="opacity:0.997" fill="#070707" d="M 91.5,32.5 C 86.1667,32.5 80.8333,32.5 75.5,32.5C 75.5,27.8333 75.5,23.1667 75.5,18.5C 80.8333,18.5 86.1667,18.5 91.5,18.5C 91.5,23.1667 91.5,27.8333 91.5,32.5 Z"/></g>
<g><path style="opacity:0.999" fill="#5bdfe4" d="M 12.5,20.5 C 15.5,20.5 18.5,20.5 21.5,20.5C 21.5,40.5 21.5,60.5 21.5,80.5C 35.8333,80.5 50.1667,80.5 64.5,80.5C 64.5,83.1667 64.5,85.8333 64.5,88.5C 47.1667,88.5 29.8333,88.5 12.5,88.5C 12.5,65.8333 12.5,43.1667 12.5,20.5 Z"/></g>
<g><path style="opacity:1" fill="#3b9194" d="M 78.5,20.5 C 78.5,23.5 78.5,26.5 78.5,29.5C 81.8333,29.5 85.1667,29.5 88.5,29.5C 88.5,26.5 88.5,23.5 88.5,20.5C 89.4794,23.6248 89.8128,26.9581 89.5,30.5C 85.5,30.5 81.5,30.5 77.5,30.5C 77.1872,26.9581 77.5206,23.6248 78.5,20.5 Z"/></g>
<g><path style="opacity:1" fill="#5bdfe4" d="M 78.5,20.5 C 81.8333,20.5 85.1667,20.5 88.5,20.5C 88.5,23.5 88.5,26.5 88.5,29.5C 85.1667,29.5 81.8333,29.5 78.5,29.5C 78.5,26.5 78.5,23.5 78.5,20.5 Z"/></g>
<g><path style="opacity:0.997" fill="#1a1e1e" d="M 196.5,49.5 C 195.604,48.4937 194.938,48.4937 194.5,49.5C 190.019,43.3767 183.852,40.3767 176,40.5C 167.861,40.8184 161.361,44.1518 156.5,50.5C 152.286,43.4102 145.953,40.0769 137.5,40.5C 130.246,40.6256 124.579,43.6256 120.5,49.5C 119.833,46.8333 119.167,44.1667 118.5,41.5C 115.833,41.5 113.167,41.5 110.5,41.5C 110.5,57.1667 110.5,72.8333 110.5,88.5C 113.5,88.5 116.5,88.5 119.5,88.5C 119.5,79.5 119.5,70.5 119.5,61.5C 120.167,62.1667 120.833,62.8333 121.5,63.5C 121.5,72.5 121.5,81.5 121.5,90.5C 117.167,90.5 112.833,90.5 108.5,90.5C 108.5,73.5 108.5,56.5 108.5,39.5C 112.833,39.5 117.167,39.5 121.5,39.5C 121.298,43.8453 122.631,44.512 125.5,41.5C 127.027,41.573 128.027,40.9063 128.5,39.5C 139.205,36.0738 148.705,38.0738 157,45.5C 162.182,40.3216 168.516,37.6549 176,37.5C 181.559,37.72 186.726,39.22 191.5,42C 194.2,43.8567 195.866,46.3567 196.5,49.5 Z"/></g>
<g><path style="opacity:0.965" fill="#181e1e" d="M 338.5,56.5 C 338.5,67.8333 338.5,79.1667 338.5,90.5C 334.5,90.5 330.5,90.5 326.5,90.5C 326.828,79.6536 326.494,68.9869 325.5,58.5C 324.026,52.4086 320.026,49.7419 313.5,50.5C 305.439,50.0573 300.273,53.7239 298,61.5C 298.129,71.212 297.962,80.8787 297.5,90.5C 293.167,90.5 288.833,90.5 284.5,90.5C 284.5,73.5 284.5,56.5 284.5,39.5C 288.833,39.5 293.167,39.5 297.5,39.5C 297.34,41.1992 297.506,42.8659 298,44.5C 302.785,39.7342 308.619,37.4009 315.5,37.5C 323.772,37.3892 330.605,40.3892 336,46.5C 337.759,49.6076 338.592,52.941 338.5,56.5 Z"/></g>
<g><path style="opacity:0.998" fill="#919191" d="M 90.5,66.5 C 90.5,57.5 90.5,48.5 90.5,39.5C 86.1667,39.5 81.8333,39.5 77.5,39.5C 77.5,56.5 77.5,73.5 77.5,90.5C 81.8333,90.5 86.1667,90.5 90.5,90.5C 85.9848,91.8124 81.3181,91.8124 76.5,90.5C 75.9049,88.5596 75.5716,86.5596 75.5,84.5C 76.5282,69.4992 76.6949,54.4992 76,39.5C 76.5,39 77,38.5 77.5,38C 82.0868,37.2009 86.5868,37.3676 91,38.5C 91.8243,48.0092 91.6576,57.3425 90.5,66.5 Z"/></g>
<g><path style="opacity:0.998" fill="#121818" d="M 90.5,66.5 C 90.5,74.5 90.5,82.5 90.5,90.5C 86.1667,90.5 81.8333,90.5 77.5,90.5C 77.5,73.5 77.5,56.5 77.5,39.5C 81.8333,39.5 86.1667,39.5 90.5,39.5C 90.5,48.5 90.5,57.5 90.5,66.5 Z"/></g>
<g><path style="opacity:0.998" fill="#7d7d7d" d="M 121.5,39.5 C 117.167,39.5 112.833,39.5 108.5,39.5C 108.5,56.5 108.5,73.5 108.5,90.5C 112.833,90.5 117.167,90.5 121.5,90.5C 116.985,91.8124 112.318,91.8124 107.5,90.5C 107.167,89.8333 106.833,89.1667 106.5,88.5C 107.153,71.8673 107.82,55.2006 108.5,38.5C 113.063,37.1161 117.396,37.4494 121.5,39.5 Z"/></g>
<g><path style="opacity:1" fill="#888888" d="M 128.5,39.5 C 128.027,40.9063 127.027,41.573 125.5,41.5C 125.973,40.0937 126.973,39.427 128.5,39.5 Z"/></g>
<g><path style="opacity:1" fill="#57d6db" d="M 79.5,41.5 C 82.5,41.5 85.5,41.5 88.5,41.5C 88.5,57.1667 88.5,72.8333 88.5,88.5C 85.5,88.5 82.5,88.5 79.5,88.5C 79.5,72.8333 79.5,57.1667 79.5,41.5 Z"/></g>
<g><path style="opacity:0.998" fill="#59d9de" d="M 194.5,49.5 C 194.995,51.4817 195.495,53.4817 196,55.5C 196.5,66.495 196.667,77.495 196.5,88.5C 193.5,88.5 190.5,88.5 187.5,88.5C 187.667,77.8281 187.5,67.1615 187,56.5C 184.877,50.2709 180.544,47.6042 174,48.5C 166.259,48.5619 160.926,52.2286 158,59.5C 157.5,69.1609 157.334,78.8276 157.5,88.5C 154.5,88.5 151.5,88.5 148.5,88.5C 148.667,77.495 148.5,66.495 148,55.5C 147.167,52 145,49.8333 141.5,49C 130.061,46.3199 122.728,50.4866 119.5,61.5C 119.5,70.5 119.5,79.5 119.5,88.5C 116.5,88.5 113.5,88.5 110.5,88.5C 110.5,72.8333 110.5,57.1667 110.5,41.5C 113.167,41.5 115.833,41.5 118.5,41.5C 118.335,44.8499 118.502,48.1832 119,51.5C 119.717,50.9558 120.217,50.2891 120.5,49.5C 124.579,43.6256 130.246,40.6256 137.5,40.5C 145.953,40.0769 152.286,43.4102 156.5,50.5C 161.361,44.1518 167.861,40.8184 176,40.5C 183.852,40.3767 190.019,43.3767 194.5,49.5 Z"/></g>
<g><path style="opacity:1" fill="#265e60" d="M 118.5,41.5 C 119.167,44.1667 119.833,46.8333 120.5,49.5C 120.217,50.2891 119.717,50.9558 119,51.5C 118.502,48.1832 118.335,44.8499 118.5,41.5 Z"/></g>
<g><path style="opacity:0.997" fill="#59dadf" d="M 263.5,51.5 C 264.479,63.7533 264.813,76.0867 264.5,88.5C 261.833,88.5 259.167,88.5 256.5,88.5C 256.665,85.4816 256.498,82.4816 256,79.5C 252.857,84.497 248.357,87.6636 242.5,89C 232.133,91.3223 223.633,88.4889 217,80.5C 215.801,77.2744 215.301,73.941 215.5,70.5C 218.975,65.9196 223.641,63.0862 229.5,62C 238.16,61.5002 246.827,61.3336 255.5,61.5C 257.142,53.2774 253.809,48.7774 245.5,48C 236.994,46.7503 228.994,48.2503 221.5,52.5C 219.186,50.5667 218.52,48.2334 219.5,45.5C 232.48,39.2365 245.48,39.0698 258.5,45C 260.765,46.7581 262.432,48.9248 263.5,51.5 Z M 243.5,68.5 C 246.833,68.5 250.167,68.5 253.5,68.5C 251.323,76.8198 245.823,80.8198 237,80.5C 232.141,81.1548 228.641,79.3215 226.5,75C 227.191,73.9326 227.691,72.7659 228,71.5C 233.171,70.0373 238.338,69.0373 243.5,68.5 Z"/></g>
<g><path style="opacity:0.999" fill="#5adce1" d="M 294.5,41.5 C 294.335,44.8499 294.502,48.1832 295,51.5C 295.717,50.9558 296.217,50.2891 296.5,49.5C 303.378,41.5968 312.044,38.7635 322.5,41C 328.841,42.6748 333.341,46.5082 336,52.5C 336.5,64.4954 336.667,76.4954 336.5,88.5C 333.833,88.5 331.167,88.5 328.5,88.5C 328.666,78.1613 328.5,67.828 328,57.5C 325.481,50.4321 320.481,47.4321 313,48.5C 304.745,48.1293 299.079,51.796 296,59.5C 295.5,69.1609 295.334,78.8276 295.5,88.5C 292.5,88.5 289.5,88.5 286.5,88.5C 286.5,72.8333 286.5,57.1667 286.5,41.5C 289.167,41.5 291.833,41.5 294.5,41.5 Z"/></g>
<g><path style="opacity:1" fill="#296466" d="M 294.5,41.5 C 295.167,44.1667 295.833,46.8333 296.5,49.5C 296.217,50.2891 295.717,50.9558 295,51.5C 294.502,48.1832 294.335,44.8499 294.5,41.5 Z"/></g>
<g><path style="opacity:0.314" fill="#9e9e9e" d="M 216.5,44.5 C 215.89,45.391 215.557,46.391 215.5,47.5C 214.115,46.0527 214.448,45.0527 216.5,44.5 Z"/></g>
<g><path style="opacity:0.911" fill="#121616" d="M 194.5,49.5 C 194.938,48.4937 195.604,48.4937 196.5,49.5C 197.29,50.6085 197.79,51.9419 198,53.5C 198.5,65.8288 198.667,78.1622 198.5,90.5C 194.167,90.5 189.833,90.5 185.5,90.5C 185.828,79.3206 185.495,68.3206 184.5,57.5C 184.16,54.3252 182.493,52.1585 179.5,51C 170.113,48.36 163.779,51.5267 160.5,60.5C 159.506,70.3194 159.173,80.3194 159.5,90.5C 155.167,90.5 150.833,90.5 146.5,90.5C 146.61,78.51 146.11,66.51 145,54.5C 140.909,50.6951 136.076,49.5284 130.5,51C 124.686,53.1237 121.686,57.2904 121.5,63.5C 120.833,62.8333 120.167,62.1667 119.5,61.5C 122.728,50.4866 130.061,46.3199 141.5,49C 145,49.8333 147.167,52 148,55.5C 148.5,66.495 148.667,77.495 148.5,88.5C 151.5,88.5 154.5,88.5 157.5,88.5C 157.334,78.8276 157.5,69.1609 158,59.5C 160.926,52.2286 166.259,48.5619 174,48.5C 180.544,47.6042 184.877,50.2709 187,56.5C 187.5,67.1615 187.667,77.8281 187.5,88.5C 190.5,88.5 193.5,88.5 196.5,88.5C 196.667,77.495 196.5,66.495 196,55.5C 195.495,53.4817 194.995,51.4817 194.5,49.5 Z"/></g>
<g><path style="opacity:0.925" fill="#262b2b" d="M 264.5,48.5 C 264.737,49.791 264.404,50.791 263.5,51.5C 262.432,48.9248 260.765,46.7581 258.5,45C 245.48,39.0698 232.48,39.2365 219.5,45.5C 218.52,48.2334 219.186,50.5667 221.5,52.5C 228.994,48.2503 236.994,46.7503 245.5,48C 253.809,48.7774 257.142,53.2774 255.5,61.5C 246.827,61.3336 238.16,61.5002 229.5,62C 223.641,63.0862 218.975,65.9196 215.5,70.5C 215.5,69.8333 215.167,69.5 214.5,69.5C 215.548,65.2808 218.215,62.4475 222.5,61C 232.74,59.1307 243.073,58.2973 253.5,58.5C 253.451,55.9009 252.451,53.7342 250.5,52C 240.435,48.1825 231.102,49.5158 222.5,56C 221.207,56.49 219.873,56.6567 218.5,56.5C 217.759,53.366 216.759,50.366 215.5,47.5C 215.557,46.391 215.89,45.391 216.5,44.5C 217.749,42.8639 219.416,41.6972 221.5,41C 234.364,36.0299 247.031,36.3633 259.5,42C 261.79,43.7772 263.457,45.9438 264.5,48.5 Z"/></g>
<g><path style="opacity:0.943" fill="#1c1e1e" d="M 264.5,48.5 C 265.776,50.5625 266.61,52.8958 267,55.5C 267.667,66.5 267.667,77.5 267,88.5C 266.626,89.4162 266.126,90.2496 265.5,91C 261.789,91.8253 258.122,91.6586 254.5,90.5C 253.77,88.9938 253.437,87.6605 253.5,86.5C 242.303,92.9881 230.97,93.1548 219.5,87C 213.673,82.2724 212.006,76.4391 214.5,69.5C 215.167,69.5 215.5,69.8333 215.5,70.5C 215.301,73.941 215.801,77.2744 217,80.5C 223.633,88.4889 232.133,91.3223 242.5,89C 248.357,87.6636 252.857,84.497 256,79.5C 256.498,82.4816 256.665,85.4816 256.5,88.5C 259.167,88.5 261.833,88.5 264.5,88.5C 264.813,76.0867 264.479,63.7533 263.5,51.5C 264.404,50.791 264.737,49.791 264.5,48.5 Z"/></g>
<g><path style="opacity:0.908" fill="#707070" d="M 160.5,60.5 C 160.5,70.8333 160.5,81.1667 160.5,91.5C 155.637,91.8195 150.97,91.4861 146.5,90.5C 150.833,90.5 155.167,90.5 159.5,90.5C 159.173,80.3194 159.506,70.3194 160.5,60.5 Z"/></g>
<g><path style="opacity:0.754" fill="#848484" d="M 297.5,39.5 C 293.167,39.5 288.833,39.5 284.5,39.5C 284.5,56.5 284.5,73.5 284.5,90.5C 288.833,90.5 293.167,90.5 297.5,90.5C 293.03,91.4861 288.363,91.8195 283.5,91.5C 283.167,73.8208 283.5,56.1541 284.5,38.5C 286.44,37.9049 288.44,37.5716 290.5,37.5C 293.205,37.3161 295.538,37.9827 297.5,39.5 Z"/></g>
<g><path style="opacity:0.804" fill="#393939" d="M 338.5,56.5 C 339.495,67.988 339.828,79.6547 339.5,91.5C 334.833,91.5 330.167,91.5 325.5,91.5C 325.5,80.5 325.5,69.5 325.5,58.5C 326.494,68.9869 326.828,79.6536 326.5,90.5C 330.5,90.5 334.5,90.5 338.5,90.5C 338.5,79.1667 338.5,67.8333 338.5,56.5 Z"/></g>
<g><path style="opacity:0.585" fill="#141c1d" d="M 235.5,66.5 C 242.167,66.5 248.833,66.5 255.5,66.5C 254.988,77.6672 248.988,83.0005 237.5,82.5C 230.729,83.1291 226.396,80.2958 224.5,74C 224.439,72.2894 225.106,70.956 226.5,70C 229.459,68.3957 232.459,67.2291 235.5,66.5 Z M 243.5,68.5 C 238.338,69.0373 233.171,70.0373 228,71.5C 227.691,72.7659 227.191,73.9326 226.5,75C 228.641,79.3215 232.141,81.1548 237,80.5C 245.823,80.8198 251.323,76.8198 253.5,68.5C 250.167,68.5 246.833,68.5 243.5,68.5 Z"/></g>
<g><path style="opacity:0.98" fill="#cbcbcb" d="M 67.5,91.5 C 67.5,91.1667 67.5,90.8333 67.5,90.5C 67.5,86.5 67.5,82.5 67.5,78.5C 53.1667,78.5 38.8333,78.5 24.5,78.5C 24.5,78.1667 24.5,77.8333 24.5,77.5C 38.5165,77.4293 52.5165,77.2626 66.5,77C 67.7595,79.2125 68.4262,81.7125 68.5,84.5C 68.4966,87.0254 68.1633,89.3587 67.5,91.5 Z"/></g>
<g><path style="opacity:0.67" fill="#696969" d="M 184.5,57.5 C 185.495,68.3206 185.828,79.3206 185.5,90.5C 189.833,90.5 194.167,90.5 198.5,90.5C 194.03,91.4861 189.363,91.8195 184.5,91.5C 184.5,80.1667 184.5,68.8333 184.5,57.5 Z"/></g>
<g><path style="opacity:0.611" fill="#9b9b9b" d="M 24.5,77.5 C 24.5,77.8333 24.5,78.1667 24.5,78.5C 23.5029,58.6736 23.1695,38.6736 23.5,18.5C 19.1667,18.5 14.8333,18.5 10.5,18.5C 10.5,42.5 10.5,66.5 10.5,90.5C 29.5,90.5 48.5,90.5 67.5,90.5C 67.5,90.8333 67.5,91.1667 67.5,91.5C 48.1667,91.5 28.8333,91.5 9.5,91.5C 8.5622,67.2647 8.5622,42.7647 9.5,18C 14.7513,17.1963 19.918,17.363 25,18.5C 24.6533,38.1498 24.4867,57.8165 24.5,77.5 Z"/></g>
</svg>
