<?xml version="1.0" standalone="no"?>
<!DOCTYPE svg PUBLIC "-//W3C//DTD SVG 20010904//EN"
 "http://www.w3.org/TR/2001/REC-SVG-20010904/DTD/svg10.dtd">
<svg version="1.0" xmlns="http://www.w3.org/2000/svg"
 width="1200.000000pt" height="1200.000000pt" viewBox="0 0 1200.000000 1200.000000"
 preserveAspectRatio="xMidYMid meet">

<g transform="translate(0.000000,1200.000000) scale(0.100000,-0.100000)"
fill="#000000" stroke="none">
<path d="M5210 6671 c-133 -43 -205 -173 -180 -327 5 -31 7 -60 4 -65 -2 -4
-25 1 -50 11 -73 32 -167 43 -298 37 -195 -9 -312 -51 -407 -146 -66 -67 -97
-127 -110 -218 -19 -126 8 -254 70 -340 34 -46 106 -97 173 -121 27 -9 48 -20
48 -23 0 -4 -37 -31 -81 -60 -155 -102 -208 -175 -209 -287 0 -74 24 -129 72
-165 98 -73 174 -87 478 -87 246 0 315 -8 382 -41 50 -26 68 -63 67 -141 0
-53 -16 -130 -18 -90 -1 9 -84 12 -382 12 l-382 0 7 69 c3 38 9 76 12 85 5 12
-12 24 -72 52 -74 34 -81 35 -118 23 -102 -34 -166 -108 -166 -192 l0 -37
-1520 0 -1520 0 0 -50 0 -50 1542 0 1542 0 25 -24 c103 -97 429 -155 725 -127
365 34 555 156 611 393 27 114 11 247 -40 334 -49 84 -159 155 -280 182 -27 6
-63 14 -80 17 -16 4 -161 10 -322 13 -259 6 -294 9 -310 24 -16 17 -16 19 3
45 12 16 39 41 60 56 l40 28 112 -12 c364 -38 613 105 651 373 21 149 -15 250
-124 354 -68 64 -76 76 -85 124 -23 120 -1 228 53 260 43 27 73 25 103 -5 32
-32 28 -54 -13 -80 -41 -26 -44 -70 -8 -114 65 -76 194 -65 259 22 30 40 34
132 8 190 -30 68 -83 99 -175 103 -40 2 -83 0 -97 -5z m-422 -397 c39 -27 53
-80 63 -241 19 -287 -9 -500 -70 -533 -53 -28 -121 3 -148 67 -7 19 -19 95
-25 169 -15 169 1 406 31 477 30 69 98 97 149 61z m288 -1773 c-49 -54 -222
-95 -370 -88 -123 5 -196 27 -244 72 l-37 34 334 1 c328 0 334 0 317 -19z"/>
<path d="M1407 6325 c-253 -45 -357 -139 -357 -323 0 -100 24 -152 88 -190 41
-24 57 -27 132 -27 89 0 128 13 178 59 43 38 56 76 56 158 0 86 -11 108 -55
108 -25 0 -30 5 -39 41 -13 49 1 101 33 124 41 29 93 37 131 21 74 -31 95
-124 96 -418 l0 -218 -92 0 c-125 0 -312 -24 -390 -50 -128 -44 -188 -111
-208 -236 -18 -110 19 -226 94 -292 65 -57 134 -76 281 -76 86 -1 143 4 169
13 51 18 108 71 131 121 10 22 21 40 25 40 4 0 13 -14 20 -30 18 -44 93 -106
153 -127 41 -14 83 -18 192 -18 136 0 141 1 193 30 88 48 129 128 150 286 9
72 7 89 -13 89 -15 0 -25 -31 -25 -80 0 -40 -15 -101 -36 -146 -31 -65 -102
-64 -129 1 -12 28 -15 101 -15 382 -1 377 -9 459 -53 555 -48 105 -111 154
-244 189 -102 27 -352 34 -466 14z m261 -878 c3 -196 -10 -261 -63 -314 -85
-85 -133 1 -122 222 3 60 11 128 17 150 14 47 69 102 108 108 59 9 57 16 60
-166z"/>
<path d="M3365 6327 c-118 -30 -203 -98 -249 -198 -21 -44 -24 -47 -30 -27 -3
13 -6 65 -6 116 l0 92 -320 0 -320 0 0 -25 c0 -23 3 -24 73 -27 l72 -3 3 -584
c2 -461 0 -586 -10 -593 -7 -4 -41 -8 -75 -8 -56 0 -63 -2 -63 -20 0 -20 7
-20 380 -20 370 0 380 1 380 20 0 16 -8 19 -57 22 l-58 3 -3 340 c-4 486 13
614 95 721 58 77 154 98 196 43 29 -40 38 -209 35 -689 l-3 -415 -52 -3 c-45
-3 -53 -6 -53 -23 0 -18 10 -19 375 -19 368 0 375 0 375 20 0 18 -7 20 -62 20
-35 0 -68 4 -75 8 -9 6 -13 124 -15 482 -3 420 -5 481 -21 527 -38 112 -122
195 -230 229 -69 21 -219 27 -282 11z"/>
<path d="M5890 6321 c-178 -33 -266 -84 -315 -185 -22 -45 -27 -68 -27 -135 0
-100 24 -150 92 -189 39 -24 56 -27 130 -27 69 0 93 5 127 23 78 41 121 131
107 225 -10 61 -20 75 -57 79 -29 3 -33 7 -41 46 -17 80 39 145 124 145 109 0
140 -98 140 -448 l0 -195 -92 0 c-123 0 -318 -25 -393 -50 -140 -47 -208 -138
-209 -278 -1 -111 18 -166 78 -228 68 -69 137 -95 271 -102 177 -8 265 27 324
129 l29 51 35 -55 c61 -94 174 -133 367 -125 81 4 114 9 145 26 102 53 146
137 161 303 6 69 4 79 -10 79 -17 0 -22 -15 -30 -95 -8 -79 -25 -126 -57 -157
-32 -32 -58 -31 -94 3 -19 19 -20 37 -27 422 -5 327 -9 413 -23 462 -48 175
-150 254 -370 284 -109 15 -274 12 -385 -8z m275 -891 c0 -179 -1 -187 -27
-242 -31 -68 -67 -96 -106 -82 -38 13 -50 65 -51 210 -1 83 4 137 15 175 24
81 85 131 154 125 13 -1 15 -29 15 -186z"/>
<path d="M7829 6322 c-102 -34 -190 -113 -221 -199 -7 -18 -15 -33 -20 -33 -4
0 -9 48 -10 108 l-3 107 -320 0 c-313 0 -320 0 -320 -20 0 -18 8 -20 73 -23
l72 -3 0 -588 c0 -528 -2 -589 -16 -595 -9 -3 -42 -6 -75 -6 -52 0 -59 -2 -59
-20 0 -20 7 -20 420 -20 411 0 420 0 420 20 0 18 -8 20 -92 22 l-93 3 0 425
c0 413 1 427 23 497 28 91 95 191 147 221 30 17 51 22 84 18 57 -5 75 -27 66
-81 -8 -54 -20 -65 -71 -65 -50 0 -55 -8 -56 -97 -1 -110 54 -174 168 -192
163 -25 264 59 272 227 10 189 -84 300 -261 309 -51 2 -88 -2 -128 -15z"/>
<path d="M10047 6324 c-176 -29 -285 -92 -333 -193 -23 -46 -30 -159 -14 -217
31 -109 171 -163 307 -118 98 33 150 116 140 224 -6 70 -19 90 -57 90 -20 0
-29 6 -34 23 -18 68 4 137 51 155 56 21 72 23 106 8 78 -32 96 -109 97 -413
l0 -223 -87 0 c-98 0 -307 -23 -368 -41 -96 -27 -169 -82 -208 -154 -18 -33
-22 -56 -22 -140 0 -123 13 -161 74 -224 66 -67 134 -92 276 -98 150 -7 212
10 277 78 26 26 50 60 54 74 9 34 20 31 40 -10 23 -48 81 -96 146 -120 43 -16
78 -20 193 -20 127 0 144 2 188 24 86 43 126 109 151 256 20 115 20 125 -3
125 -16 0 -20 -13 -29 -85 -20 -151 -65 -214 -130 -182 -47 22 -51 53 -51 439
-1 375 -8 447 -50 543 -48 109 -153 175 -318 200 -117 18 -289 18 -396 -1z
m263 -884 c0 -203 -14 -267 -71 -315 -67 -55 -98 -23 -111 112 -16 171 16 323
74 354 27 14 67 27 91 28 16 1 17 -14 17 -179z"/>
<path d="M8220 6285 c0 -24 3 -25 54 -25 l55 0 21 -57 c106 -286 280 -750 350
-938 l87 -230 116 -3 c65 -1 117 -6 117 -10 0 -31 -117 -333 -146 -378 -16
-23 -21 -24 -124 -24 l-107 0 -1 45 c-3 112 -79 175 -212 175 -124 0 -198 -59
-215 -173 l-7 -47 -634 0 -634 0 0 -50 0 -50 644 0 645 0 22 -32 c34 -48 58
-68 119 -96 72 -34 216 -42 301 -18 62 18 156 80 183 120 l16 26 1105 0 1105
0 0 50 0 50 -1070 0 c-588 0 -1070 2 -1070 4 0 2 13 32 29 67 16 35 93 249
171 474 323 932 361 1041 375 1078 6 14 20 17 71 17 62 0 64 1 64 25 l0 25
-186 0 -185 0 3 -22 c3 -21 9 -23 86 -26 61 -2 82 -6 82 -16 0 -8 -18 -65 -40
-127 -22 -63 -89 -253 -148 -424 -60 -170 -113 -309 -118 -308 -10 2 -293 854
-287 866 2 4 33 7 68 7 48 0 64 4 69 16 3 9 4 20 0 25 -3 5 -170 9 -390 9
l-384 0 0 -25z m531 -1805 c-45 -41 -92 -60 -149 -60 -40 0 -82 38 -82 75 l0
25 138 0 137 -1 -44 -39z"/>
<path d="M5920 4575 l0 -125 125 0 125 0 0 125 0 125 -125 0 -125 0 0 -125z
m150 -5 c0 -27 -3 -30 -30 -30 -27 0 -30 3 -30 30 0 27 3 30 30 30 27 0 30 -3
30 -30z"/>
</g>
</svg>
