<?xml version="1.0" standalone="no"?>
<!DOCTYPE svg PUBLIC "-//W3C//DTD SVG 20010904//EN"
 "http://www.w3.org/TR/2001/REC-SVG-20010904/DTD/svg10.dtd">
<svg version="1.0" xmlns="http://www.w3.org/2000/svg"
 width="300.000000pt" height="300.000000pt" viewBox="0 0 300.000000 300.000000"
 preserveAspectRatio="xMidYMid meet">

<g transform="translate(0.000000,300.000000) scale(0.100000,-0.100000)"
fill="#000000" stroke="none">
<path d="M475 2045 c-36 -35 -34 -88 4 -126 40 -40 82 -39 123 1 27 27 30 36
25 73 -7 52 -36 77 -89 77 -28 0 -46 -7 -63 -25z"/>
<path d="M80 2050 c0 -5 11 -10 25 -10 l25 0 0 -330 0 -330 -30 0 c-16 0 -30
-4 -30 -10 0 -6 52 -10 135 -10 77 0 135 4 135 9 0 5 -12 11 -28 13 l-27 3 -3
338 -2 337 -100 0 c-60 0 -100 -4 -100 -10z"/>
<path d="M1006 1825 c-44 -23 -46 -24 -46 -5 0 19 -7 20 -105 20 -63 0 -105
-4 -105 -10 0 -5 11 -10 25 -10 l25 0 0 -220 0 -220 -25 0 c-14 0 -25 -4 -25
-10 0 -6 50 -10 130 -10 80 0 130 4 130 10 0 6 -11 10 -25 10 l-25 0 0 184 c0
101 3 192 6 201 14 35 93 57 134 35 32 -17 40 -67 40 -246 l0 -174 -30 0 c-16
0 -30 -4 -30 -10 0 -6 52 -10 135 -10 83 0 135 4 135 10 0 6 -11 10 -25 10
l-25 0 0 158 c0 86 -3 174 -6 194 -6 34 -4 38 27 57 37 23 79 27 109 11 32
-17 40 -67 40 -246 l0 -174 -25 0 c-14 0 -25 -4 -25 -10 0 -6 50 -10 130 -10
80 0 130 4 130 10 0 6 -11 10 -24 10 l-24 0 -4 178 c-3 155 -5 181 -23 211
-37 63 -66 76 -164 76 -78 0 -92 -3 -128 -27 -37 -25 -43 -26 -55 -11 -40 49
-175 59 -252 18z"/>
<path d="M1900 1841 c-78 -25 -120 -69 -120 -123 1 -67 90 -98 135 -48 13 14
16 34 13 87 l-3 68 42 3 c59 4 73 -19 73 -123 l0 -81 -80 -12 c-135 -19 -200
-67 -200 -147 0 -28 7 -51 21 -68 40 -51 150 -59 232 -17 38 20 38 20 59 0 28
-26 124 -30 177 -7 l26 11 -28 4 c-40 5 -47 33 -47 195 -1 222 -27 258 -190
264 -47 1 -96 -1 -110 -6z m144 -326 c-1 -51 -7 -91 -14 -100 -19 -23 -76 -19
-99 7 -63 67 -11 176 84 178 l30 0 -1 -85z"/>
<path d="M2610 1839 c-14 -5 -35 -20 -47 -31 l-23 -21 0 26 0 27 -105 0 c-63
0 -105 -4 -105 -10 0 -5 11 -10 25 -10 l25 0 0 -220 0 -220 -25 0 c-14 0 -25
-4 -25 -10 0 -6 50 -10 130 -10 80 0 130 4 130 10 0 6 -11 10 -25 10 l-25 0 0
189 0 189 31 26 c17 15 43 26 59 26 81 0 90 -25 90 -250 l0 -180 -25 0 c-14 0
-25 -4 -25 -10 0 -6 50 -10 130 -10 80 0 130 4 130 10 0 6 -11 10 -25 10 l-25
0 0 168 c0 154 -2 171 -22 212 -34 66 -66 84 -151 87 -40 2 -83 -2 -97 -8z"/>
<path d="M420 1830 c0 -5 9 -10 20 -10 19 0 20 -7 20 -220 l0 -220 -25 0 c-14
0 -25 -4 -25 -10 0 -6 50 -10 130 -10 80 0 130 4 130 10 0 6 -11 10 -25 10
l-25 0 0 230 0 230 -100 0 c-60 0 -100 -4 -100 -10z"/>
<path d="M30 1255 l0 -25 1470 0 1470 0 0 25 0 25 -1470 0 -1470 0 0 -25z"/>
</g>
</svg>
