<svg version="1.1" id="Layer_1" xmlns="http://www.w3.org/2000/svg" xmlns:xlink="http://www.w3.org/1999/xlink" x="0px" y="0px"
	 width="100%" viewBox="0 0 300 300" enable-background="new 0 0 300 300" xml:space="preserve">
<path fill="#000000" opacity="1.000000" stroke="none" 
	d="
M301.000000,174.000000 
	C301.000000,216.317825 301.000000,258.635651 301.000000,300.976746 
	C201.052155,300.976746 101.104301,300.976746 1.078224,300.976746 
	C1.078224,201.088837 1.078224,101.177605 1.078224,1.133183 
	C100.999893,1.133183 200.999924,1.133183 300.999969,1.128359 
	C301.000000,56.436584 301.000000,111.749634 300.656342,167.899460 
	C298.292084,168.337982 296.271454,167.939728 294.303589,167.551880 
	C294.188293,167.099960 294.040985,166.790527 294.040222,166.480728 
	C294.017853,157.490097 293.784332,148.492615 294.056396,139.510498 
	C294.406952,127.938797 285.706940,120.106331 274.550751,119.728210 
	C268.768463,119.532227 263.685181,122.272118 257.674377,121.298286 
	C250.086975,120.069016 242.149307,121.001587 234.234695,121.001587 
	C234.234695,123.177628 234.234695,124.914528 234.234695,126.892570 
	C235.861847,126.973831 237.270355,127.044167 238.754333,127.118279 
	C238.754333,140.897186 238.754333,154.309250 238.754333,167.819962 
	C237.101807,167.957520 235.683609,168.075577 234.284622,168.192017 
	C234.284622,170.272415 234.284622,171.999817 234.284622,173.718170 
	C244.648529,173.718170 254.727173,173.718170 264.693451,173.718170 
	C264.693451,171.684769 264.693451,169.938232 264.693451,168.231186 
	C262.984741,168.027725 261.582520,167.860764 259.999664,167.672302 
	C259.999664,157.040924 259.993988,146.734772 260.002289,136.428619 
	C260.006012,131.792480 262.778473,128.118149 266.329071,128.001801 
	C270.497467,127.865189 273.786011,130.828644 273.912445,135.866150 
	C274.178650,146.474213 273.993347,157.093628 273.993347,167.827682 
	C272.120056,167.962952 270.701080,168.065414 269.274902,168.168396 
	C269.274902,170.254654 269.274902,171.982925 269.274902,174.000000 
	C280.030426,174.000000 290.515228,174.000000 301.000000,174.000000 
M76.998619,160.421783 
	C76.998619,162.874634 76.998619,165.327499 76.998619,167.731827 
	C75.054008,167.953110 73.633949,168.114700 71.968987,168.304169 
	C72.060844,170.326004 72.139282,172.052490 72.213737,173.691223 
	C82.711670,173.691223 92.796066,173.691223 102.832878,173.691223 
	C102.832878,171.751266 102.832878,170.121368 102.832878,168.292389 
	C101.172264,168.061661 99.643593,167.849258 97.999710,167.620865 
	C97.999710,156.949280 98.126526,146.628723 97.941063,136.313766 
	C97.860039,131.807861 99.845215,128.978210 103.973152,128.097427 
	C107.811913,127.278358 111.637627,130.314056 111.814255,135.005081 
	C112.225624,145.930725 111.945435,156.882385 111.945435,167.764832 
	C109.664085,167.979446 107.908447,168.144608 105.952202,168.328644 
	C106.057335,170.384659 106.145668,172.111923 106.224289,173.649445 
	C117.096718,173.649445 127.497742,173.649445 137.621277,173.649445 
	C137.621277,171.557587 137.621277,169.823013 137.621277,167.840332 
	C135.620728,167.840332 134.009247,167.840332 131.455215,167.840332 
	C131.455215,156.014893 131.435150,144.442215 131.506378,132.870102 
	C131.510544,132.194534 132.096680,131.170303 132.679535,130.911942 
	C135.115234,129.832260 137.920334,127.863708 140.075272,128.377975 
	C142.059860,128.851562 144.697067,132.030350 144.783340,134.111313 
	C145.246338,145.281036 145.002075,156.480087 145.002075,167.901093 
	C143.787842,167.965057 142.034836,168.057419 140.277985,168.149979 
	C140.277985,170.248291 140.277985,171.977783 140.277985,173.717133 
	C150.639694,173.717133 160.723373,173.717133 170.690781,173.717133 
	C170.690781,171.681839 170.690781,169.934448 170.690781,168.222275 
	C168.979691,168.022888 167.577011,167.859421 165.999741,167.675629 
	C165.999741,158.192215 166.413300,149.021317 165.888184,139.904480 
	C165.316422,129.977798 161.728134,122.501396 152.091141,120.678535 
	C144.835999,119.306213 137.525879,118.909599 130.829315,123.434219 
	C129.706497,124.192863 127.512070,123.738518 125.925507,123.365387 
	C121.755196,122.384613 117.631897,121.191345 113.517685,119.987648 
	C107.439072,118.209213 101.967712,122.323662 95.636192,121.293129 
	C88.048088,120.058067 80.105415,121.001465 72.254120,121.001465 
	C72.254120,123.214035 72.254120,124.954201 72.254120,126.881126 
	C73.903175,126.971352 75.310890,127.048378 76.998619,127.140717 
	C76.998619,138.167557 76.998619,148.804901 76.998619,160.421783 
M189.204453,121.293831 
	C187.491791,122.193634 185.707626,122.980827 184.079834,124.014313 
	C179.175690,127.127975 176.773865,130.752167 178.023651,137.340973 
	C179.075500,142.886230 181.775696,144.617462 189.577591,145.282104 
	C187.078659,146.540543 184.627548,147.675949 182.270782,148.981705 
	C176.808640,152.007996 174.640350,156.945770 175.070419,162.898499 
	C175.483688,168.618652 178.670761,172.343277 184.309769,174.016815 
	C190.706055,175.915131 196.780289,175.116272 202.875275,172.705658 
	C204.577469,172.032425 206.997009,171.546722 208.486710,172.249130 
	C214.359268,175.018051 220.033585,175.453033 226.309036,173.468246 
	C230.388672,172.177917 232.084274,170.526550 230.598969,166.397430 
	C226.295425,168.045853 224.958893,166.453445 224.921646,162.117310 
	C224.842361,152.890030 224.475800,143.658325 223.951172,134.444138 
	C223.592850,128.151031 220.162842,124.152641 214.143799,121.905655 
	C206.112793,118.907600 198.098434,119.772789 189.204453,121.293831 
M17.503597,173.999207 
	C22.952141,173.999207 28.400682,173.999207 33.848343,173.999207 
	C33.848343,171.781494 33.848343,170.154190 33.848343,168.280182 
	C32.211880,168.077225 30.676954,167.886856 28.729519,167.645340 
	C28.729519,144.244171 28.729519,121.180008 28.729519,98.209091 
	C19.969942,98.209091 11.680449,98.209091 3.225027,98.209091 
	C3.225027,100.156090 3.225027,101.892708 3.225027,103.629875 
	C4.959795,103.938194 6.478844,104.208176 7.751608,104.434380 
	C7.751608,125.824669 7.751608,146.777023 7.751608,167.811249 
	C6.096262,167.955750 4.674958,168.079803 3.290215,168.200684 
	C3.290215,170.271469 3.290215,171.998947 3.290215,173.999207 
	C7.885199,173.999207 12.196486,173.999207 17.503597,173.999207 
M40.546185,167.999878 
	C35.739738,168.502808 38.768333,171.660812 38.120564,173.719589 
	C48.668571,173.719589 58.732491,173.719589 68.695938,173.719589 
	C68.695938,171.693253 68.695938,169.952042 68.695938,168.207489 
	C66.658447,168.026581 64.924454,167.872635 62.807140,167.684647 
	C62.807140,151.984192 62.807140,136.612106 62.807140,121.285294 
	C54.644962,121.285294 46.908226,121.285294 39.141056,121.285294 
	C39.141056,123.197273 39.141056,124.823486 39.141056,126.727066 
	C40.428898,126.910774 41.632725,127.082497 42.997776,127.277222 
	C42.997776,140.259155 43.026638,152.876038 42.932407,165.492020 
	C42.926174,166.327255 41.982586,167.155487 40.546185,167.999878 
M50.859745,119.997032 
	C51.859306,119.998169 52.858879,119.997490 53.858433,120.000763 
	C58.635384,120.016426 61.554302,117.113861 63.171204,113.180206 
	C64.834213,109.134399 64.821053,104.904160 61.730690,101.211159 
	C58.704556,97.594917 54.841747,96.230675 50.338017,97.317482 
	C45.042526,98.595360 41.402855,103.045731 41.001392,108.200150 
	C40.596680,113.396278 43.712536,117.462517 50.859745,119.997032 
z"/>
<path fill="#78DEDE" opacity="1.000000" stroke="none" 
	d="
M301.000000,173.571533 
	C290.515228,174.000000 280.030426,174.000000 269.274902,174.000000 
	C269.274902,171.982925 269.274902,170.254654 269.274902,168.168396 
	C270.701080,168.065414 272.120056,167.962952 273.993347,167.827682 
	C273.993347,157.093628 274.178650,146.474213 273.912445,135.866150 
	C273.786011,130.828644 270.497467,127.865189 266.329071,128.001801 
	C262.778473,128.118149 260.006012,131.792480 260.002289,136.428619 
	C259.993988,146.734772 259.999664,157.040924 259.999664,167.672302 
	C261.582520,167.860764 262.984741,168.027725 264.693451,168.231186 
	C264.693451,169.938232 264.693451,171.684769 264.693451,173.718170 
	C254.727173,173.718170 244.648529,173.718170 234.284622,173.718170 
	C234.284622,171.999817 234.284622,170.272415 234.284622,168.192017 
	C235.683609,168.075577 237.101807,167.957520 238.754333,167.819962 
	C238.754333,154.309250 238.754333,140.897186 238.754333,127.118279 
	C237.270355,127.044167 235.861847,126.973831 234.234695,126.892570 
	C234.234695,124.914528 234.234695,123.177628 234.234695,121.001587 
	C242.149307,121.001587 250.086975,120.069016 257.674377,121.298286 
	C263.685181,122.272118 268.768463,119.532227 274.550751,119.728210 
	C285.706940,120.106331 294.406952,127.938797 294.056396,139.510498 
	C293.784332,148.492615 294.017853,157.490097 294.040222,166.480728 
	C294.040985,166.790527 294.188293,167.099960 294.303589,167.551880 
	C296.271454,167.939728 298.292084,168.337982 300.656342,168.368118 
	C301.000000,169.714355 301.000000,171.428711 301.000000,173.571533 
M284.213318,125.032852 
	C275.465607,120.189903 267.897888,121.367401 262.604004,125.767372 
	C269.692963,124.732132 275.400360,126.943039 275.775848,131.888641 
	C276.734131,144.510452 276.946960,157.188858 277.452911,169.718613 
	C274.600708,170.006927 272.809998,170.187958 271.019318,170.368973 
	C271.068390,170.724121 271.117432,171.079269 271.166504,171.434418 
	C279.735870,171.434418 288.305237,171.434418 296.874573,171.434418 
	C296.899750,171.129486 296.924927,170.824554 296.950073,170.519623 
	C295.334747,170.202072 293.719421,169.884521 291.999786,169.546478 
	C291.999786,160.628036 292.275208,151.979034 291.910889,143.357056 
	C291.629486,136.698135 290.833252,129.959442 284.213318,125.032852 
M258.801056,129.685730 
	C257.922607,127.590073 257.044159,125.494415 256.085571,123.207573 
	C250.225830,123.207573 243.983002,123.207573 237.740189,123.207573 
	C237.728058,123.384789 237.715927,123.562004 237.703796,123.739227 
	C239.070404,123.897316 240.436996,124.055405 241.727829,124.204735 
	C241.727829,139.671295 241.727829,154.774567 241.727829,169.699387 
	C239.954086,169.998734 238.476868,170.248032 236.999649,170.497345 
	C237.049942,170.810913 237.100235,171.124481 237.150543,171.438049 
	C245.391052,171.438049 253.631561,171.438049 261.872070,171.438049 
	C261.894592,171.132416 261.917084,170.826782 261.939606,170.521149 
	C260.327606,170.201706 258.715607,169.882263 257.001556,169.542603 
	C257.001556,157.440872 256.967102,145.620285 257.054443,133.800613 
	C257.063232,132.607574 257.808197,131.419983 258.801056,129.685730 
z"/>
<path fill="#78DEDE" opacity="1.000000" stroke="none" 
	d="
M76.998619,159.932022 
	C76.998619,148.804901 76.998619,138.167557 76.998619,127.140717 
	C75.310890,127.048378 73.903175,126.971352 72.254120,126.881126 
	C72.254120,124.954201 72.254120,123.214035 72.254120,121.001465 
	C80.105415,121.001465 88.048088,120.058067 95.636192,121.293129 
	C101.967712,122.323662 107.439072,118.209213 113.517685,119.987648 
	C117.631897,121.191345 121.755196,122.384613 125.925507,123.365387 
	C127.512070,123.738518 129.706497,124.192863 130.829315,123.434219 
	C137.525879,118.909599 144.835999,119.306213 152.091141,120.678535 
	C161.728134,122.501396 165.316422,129.977798 165.888184,139.904480 
	C166.413300,149.021317 165.999741,158.192215 165.999741,167.675629 
	C167.577011,167.859421 168.979691,168.022888 170.690781,168.222275 
	C170.690781,169.934448 170.690781,171.681839 170.690781,173.717133 
	C160.723373,173.717133 150.639694,173.717133 140.277985,173.717133 
	C140.277985,171.977783 140.277985,170.248291 140.277985,168.149979 
	C142.034836,168.057419 143.787842,167.965057 145.002075,167.901093 
	C145.002075,156.480087 145.246338,145.281036 144.783340,134.111313 
	C144.697067,132.030350 142.059860,128.851562 140.075272,128.377975 
	C137.920334,127.863708 135.115234,129.832260 132.679535,130.911942 
	C132.096680,131.170303 131.510544,132.194534 131.506378,132.870102 
	C131.435150,144.442215 131.455215,156.014893 131.455215,167.840332 
	C134.009247,167.840332 135.620728,167.840332 137.621277,167.840332 
	C137.621277,169.823013 137.621277,171.557587 137.621277,173.649445 
	C127.497742,173.649445 117.096718,173.649445 106.224289,173.649445 
	C106.145668,172.111923 106.057335,170.384659 105.952202,168.328644 
	C107.908447,168.144608 109.664085,167.979446 111.945435,167.764832 
	C111.945435,156.882385 112.225624,145.930725 111.814255,135.005081 
	C111.637627,130.314056 107.811913,127.278358 103.973152,128.097427 
	C99.845215,128.978210 97.860039,131.807861 97.941063,136.313766 
	C98.126526,146.628723 97.999710,156.949280 97.999710,167.620865 
	C99.643593,167.849258 101.172264,168.061661 102.832878,168.292389 
	C102.832878,170.121368 102.832878,171.751266 102.832878,173.691223 
	C92.796066,173.691223 82.711670,173.691223 72.213737,173.691223 
	C72.139282,172.052490 72.060844,170.326004 71.968987,168.304169 
	C73.633949,168.114700 75.054008,167.953110 76.998619,167.731827 
	C76.998619,165.327499 76.998619,162.874634 76.998619,159.932022 
M134.865341,126.008133 
	C143.871552,123.651230 147.784088,128.507889 147.916214,134.253998 
	C148.187149,146.037598 147.997559,157.831818 147.997559,169.536072 
	C146.067001,169.945267 144.520386,170.273087 142.973785,170.600906 
	C143.041901,170.849396 143.110001,171.097900 143.178116,171.346390 
	C151.749710,171.346390 160.321304,171.346390 168.892899,171.346390 
	C168.896805,171.014862 168.900696,170.683319 168.904587,170.351791 
	C167.037445,170.148178 165.170288,169.944550 163.000275,169.707901 
	C163.000275,160.212418 162.941605,150.915543 163.020050,141.619812 
	C163.076187,134.967682 162.017822,128.696793 155.782043,125.029701 
	C148.364182,120.667442 140.742630,121.007561 132.726074,125.867836 
	C132.095856,126.234467 131.465622,126.601105 130.835403,126.967735 
	C130.981522,127.223633 131.127640,127.479538 131.273758,127.735435 
	C132.207245,127.183716 133.140717,126.631989 134.865341,126.008133 
M114.999298,143.598816 
	C114.999298,152.367477 114.999298,161.136139 114.999298,169.807434 
	C112.233902,170.008423 110.123306,170.161835 108.012703,170.315231 
	C108.061813,170.672714 108.110916,171.030212 108.160019,171.387695 
	C117.068810,171.387695 125.977608,171.387695 134.886398,171.387695 
	C134.900620,171.083130 134.914825,170.778564 134.929031,170.473999 
	C133.299988,170.162369 131.670944,169.850754 129.999908,169.531082 
	C129.999908,160.187012 130.656815,151.130234 129.754898,142.231430 
	C129.209076,136.846130 131.148743,130.539795 124.914391,126.161690 
	C117.964890,121.281349 105.821655,120.488823 100.586830,125.757713 
	C107.727455,124.757812 112.854904,126.977005 113.858009,131.900238 
	C114.572968,135.409256 114.642006,139.049881 114.999298,143.598816 
M95.014153,132.289093 
	C98.375298,129.212936 93.637955,126.385147 95.107216,123.278831 
	C88.448845,123.278831 82.159996,123.278831 75.871147,123.278831 
	C75.863464,123.427193 75.855782,123.575554 75.848099,123.723915 
	C77.200676,123.922188 78.553253,124.120461 79.813187,124.305153 
	C79.813187,139.694885 79.813187,154.647232 79.813187,169.564453 
	C78.074837,169.939423 76.523148,170.274124 74.971458,170.608826 
	C75.037376,170.858109 75.103302,171.107407 75.169220,171.356689 
	C83.413361,171.356689 91.657494,171.356689 99.901627,171.356689 
	C99.907745,171.044632 99.913864,170.732574 99.919983,170.420517 
	C98.385773,170.183304 96.851562,169.946091 95.002541,169.660202 
	C95.002541,157.419495 95.002541,145.286591 95.014153,132.289093 
z"/>
<path fill="#78DEDE" opacity="1.000000" stroke="none" 
	d="
M189.600510,121.163345 
	C198.098434,119.772789 206.112793,118.907600 214.143799,121.905655 
	C220.162842,124.152641 223.592850,128.151031 223.951172,134.444138 
	C224.475800,143.658325 224.842361,152.890030 224.921646,162.117310 
	C224.958893,166.453445 226.295425,168.045853 230.598969,166.397430 
	C232.084274,170.526550 230.388672,172.177917 226.309036,173.468246 
	C220.033585,175.453033 214.359268,175.018051 208.486710,172.249130 
	C206.997009,171.546722 204.577469,172.032425 202.875275,172.705658 
	C196.780289,175.116272 190.706055,175.915131 184.309769,174.016815 
	C178.670761,172.343277 175.483688,168.618652 175.070419,162.898499 
	C174.640350,156.945770 176.808640,152.007996 182.270782,148.981705 
	C184.627548,147.675949 187.078659,146.540543 189.577591,145.282104 
	C181.775696,144.617462 179.075500,142.886230 178.023651,137.340973 
	C176.773865,130.752167 179.175690,127.127975 184.079834,124.014313 
	C185.707626,122.980827 187.491791,122.193634 189.600510,121.163345 
M203.511612,166.232361 
	C204.379517,166.474731 205.247406,166.717102 206.828033,167.005844 
	C212.434723,173.109573 219.174149,173.037888 225.072235,171.021255 
	C224.041611,168.113800 222.295547,165.273773 222.141266,162.349731 
	C221.729172,154.539017 222.150803,146.688354 221.948715,138.861130 
	C221.810394,133.503647 220.575562,127.861984 215.501938,125.450256 
	C210.696259,123.165894 205.036636,122.678009 199.752563,121.400055 
	C199.482407,121.900673 199.212265,122.401299 198.942123,122.901917 
	C207.659073,124.628311 206.974686,131.151367 206.998184,137.311966 
	C207.003265,138.645126 206.886917,139.989761 207.021301,141.309265 
	C207.358932,144.624893 206.149796,145.636810 202.643127,146.189545 
	C196.328690,147.184830 189.881577,148.622437 184.069351,151.188019 
	C177.133865,154.249405 175.700668,165.565674 181.052475,169.544830 
	C185.913300,173.158920 196.921494,172.973618 202.436905,169.170532 
	C201.946838,169.055084 201.473694,168.943604 201.000183,168.166077 
	C201.000183,167.500000 201.000198,166.833923 201.618454,166.019531 
	C202.041733,165.998566 202.465027,165.977600 203.511612,166.232361 
M190.682068,123.993790 
	C187.828186,125.791428 184.278152,127.049805 182.337662,129.554962 
	C180.745468,131.610458 179.992676,135.539093 180.855942,137.915100 
	C181.651337,140.104309 185.249069,142.814087 187.331406,142.597183 
	C189.788513,142.341217 192.477997,139.536819 194.033447,137.160828 
	C194.997650,135.688004 194.614838,132.718094 193.829239,130.842041 
	C192.150467,126.833092 192.424911,124.205956 197.046417,122.708458 
	C195.193130,123.113548 193.339828,123.518646 190.682068,123.993790 
M204.000854,138.348236 
	C204.000839,136.527985 204.017944,134.707550 203.997711,132.887512 
	C203.927429,126.564339 202.813660,125.627243 196.049347,126.467461 
	C196.469437,132.968628 200.108871,140.364563 190.581284,144.917053 
	C194.258423,144.515884 196.679230,144.433258 199.016205,143.947403 
	C201.515213,143.427856 204.905914,143.551163 204.000854,138.348236 
z"/>
<path fill="#79DEDE" opacity="1.000000" stroke="none" 
	d="
M17.005686,173.999207 
	C12.196486,173.999207 7.885199,173.999207 3.290215,173.999207 
	C3.290215,171.998947 3.290215,170.271469 3.290215,168.200684 
	C4.674958,168.079803 6.096262,167.955750 7.751608,167.811249 
	C7.751608,146.777023 7.751608,125.824669 7.751608,104.434380 
	C6.478844,104.208176 4.959795,103.938194 3.225027,103.629875 
	C3.225027,101.892708 3.225027,100.156090 3.225027,98.209091 
	C11.680449,98.209091 19.969942,98.209091 28.729519,98.209091 
	C28.729519,121.180008 28.729519,144.244171 28.729519,167.645340 
	C30.676954,167.886856 32.211880,168.077225 33.848343,168.280182 
	C33.848343,170.154190 33.848343,171.781494 33.848343,173.999207 
	C28.400682,173.999207 22.952141,173.999207 17.005686,173.999207 
M10.998859,134.500000 
	C10.998859,146.272873 10.998859,158.045761 10.998859,169.613419 
	C8.952811,170.008652 7.446810,170.299561 5.940809,170.590469 
	C6.022495,170.891052 6.104181,171.191635 6.185866,171.492218 
	C14.747678,171.492218 23.309488,171.492218 31.871300,171.492218 
	C31.896576,171.139404 31.921854,170.786575 31.947130,170.433762 
	C30.021549,170.171494 28.095968,169.909225 25.794113,169.595703 
	C25.794113,146.637619 25.794113,123.930786 25.794113,101.229996 
	C19.166525,101.229996 12.967510,101.229996 6.768494,101.229996 
	C6.757961,101.415070 6.747427,101.600143 6.736894,101.785217 
	C8.099548,101.928345 9.462202,102.071465 10.998859,102.232872 
	C10.998859,112.894196 10.998859,123.197098 10.998859,134.500000 
z"/>
<path fill="#78DEDE" opacity="1.000000" stroke="none" 
	d="
M41.010586,167.993439 
	C41.982586,167.155487 42.926174,166.327255 42.932407,165.492020 
	C43.026638,152.876038 42.997776,140.259155 42.997776,127.277222 
	C41.632725,127.082497 40.428898,126.910774 39.141056,126.727066 
	C39.141056,124.823486 39.141056,123.197273 39.141056,121.285294 
	C46.908226,121.285294 54.644962,121.285294 62.807140,121.285294 
	C62.807140,136.612106 62.807140,151.984192 62.807140,167.684647 
	C64.924454,167.872635 66.658447,168.026581 68.695938,168.207489 
	C68.695938,169.952042 68.695938,171.693253 68.695938,173.719589 
	C58.732491,173.719589 48.668571,173.719589 38.120564,173.719589 
	C38.768333,171.660812 35.739738,168.502808 41.010586,167.993439 
M60.319603,172.000168 
	C62.213966,171.879166 64.108330,171.758148 66.002693,171.637146 
	C65.974457,171.224960 65.946228,170.812759 65.917992,170.400574 
	C64.375366,170.170700 62.832741,169.940826 60.903587,169.653336 
	C60.903587,154.126450 60.903587,138.731384 60.903587,123.184647 
	C54.219959,123.184647 47.957882,123.184647 41.695805,123.184647 
	C41.681358,123.345871 41.666916,123.507103 41.652470,123.668327 
	C43.026680,123.862984 44.400887,124.057640 45.782524,124.253349 
	C45.782524,139.488083 45.782524,154.575729 45.782524,169.636337 
	C43.698570,169.972137 41.838642,170.271851 39.978718,170.571548 
	C40.035500,171.047760 40.092278,171.523956 40.149059,172.000168 
	C46.553802,172.000168 52.958549,172.000168 60.319603,172.000168 
z"/>
<path fill="#78DEDE" opacity="1.000000" stroke="none" 
	d="
M50.439884,119.983307 
	C43.712536,117.462517 40.596680,113.396278 41.001392,108.200150 
	C41.402855,103.045731 45.042526,98.595360 50.338017,97.317482 
	C54.841747,96.230675 58.704556,97.594917 61.730690,101.211159 
	C64.821053,104.904160 64.834213,109.134399 63.171204,113.180206 
	C61.554302,117.113861 58.635384,120.016426 53.858433,120.000763 
	C52.858879,119.997490 51.859306,119.998169 50.439884,119.983307 
M60.061687,104.453438 
	C57.028522,99.837761 52.530884,98.489235 48.515121,100.991447 
	C44.067661,103.762650 42.595970,108.852989 45.014683,113.098892 
	C46.965008,116.522560 53.384239,118.460121 56.809040,116.658859 
	C60.805248,114.557068 62.472538,109.394302 60.061687,104.453438 
z"/>
<path fill="#000000" opacity="1.000000" stroke="none" 
	d="
M284.551483,125.208145 
	C290.833252,129.959442 291.629486,136.698135 291.910889,143.357056 
	C292.275208,151.979034 291.999786,160.628036 291.999786,169.546478 
	C293.719421,169.884521 295.334747,170.202072 296.950073,170.519623 
	C296.924927,170.824554 296.899750,171.129486 296.874573,171.434418 
	C288.305237,171.434418 279.735870,171.434418 271.166504,171.434418 
	C271.117432,171.079269 271.068390,170.724121 271.019318,170.368973 
	C272.809998,170.187958 274.600708,170.006927 277.452911,169.718613 
	C276.946960,157.188858 276.734131,144.510452 275.775848,131.888641 
	C275.400360,126.943039 269.692963,124.732132 262.604004,125.767372 
	C267.897888,121.367401 275.465607,120.189903 284.551483,125.208145 
z"/>
<path fill="#000000" opacity="1.000000" stroke="none" 
	d="
M258.506287,129.957794 
	C257.808197,131.419983 257.063232,132.607574 257.054443,133.800613 
	C256.967102,145.620285 257.001556,157.440872 257.001556,169.542603 
	C258.715607,169.882263 260.327606,170.201706 261.939606,170.521149 
	C261.917084,170.826782 261.894592,171.132416 261.872070,171.438049 
	C253.631561,171.438049 245.391052,171.438049 237.150543,171.438049 
	C237.100235,171.124481 237.049942,170.810913 236.999649,170.497345 
	C238.476868,170.248032 239.954086,169.998734 241.727829,169.699387 
	C241.727829,154.774567 241.727829,139.671295 241.727829,124.204735 
	C240.436996,124.055405 239.070404,123.897316 237.703796,123.739227 
	C237.715927,123.562004 237.728058,123.384789 237.740189,123.207573 
	C243.983002,123.207573 250.225830,123.207573 256.085571,123.207573 
	C257.044159,125.494415 257.922607,127.590073 258.506287,129.957794 
z"/>
<path fill="#000000" opacity="1.000000" stroke="none" 
	d="
M114.999298,143.115295 
	C114.642006,139.049881 114.572968,135.409256 113.858009,131.900238 
	C112.854904,126.977005 107.727455,124.757812 100.586830,125.757713 
	C105.821655,120.488823 117.964890,121.281349 124.914391,126.161690 
	C131.148743,130.539795 129.209076,136.846130 129.754898,142.231430 
	C130.656815,151.130234 129.999908,160.187012 129.999908,169.531082 
	C131.670944,169.850754 133.299988,170.162369 134.929031,170.473999 
	C134.914825,170.778564 134.900620,171.083130 134.886398,171.387695 
	C125.977608,171.387695 117.068810,171.387695 108.160019,171.387695 
	C108.110916,171.030212 108.061813,170.672714 108.012703,170.315231 
	C110.123306,170.161835 112.233902,170.008423 114.999298,169.807434 
	C114.999298,161.136139 114.999298,152.367477 114.999298,143.115295 
z"/>
<path fill="#000000" opacity="1.000000" stroke="none" 
	d="
M133.311707,125.348740 
	C140.742630,121.007561 148.364182,120.667442 155.782043,125.029701 
	C162.017822,128.696793 163.076187,134.967682 163.020050,141.619812 
	C162.941605,150.915543 163.000275,160.212418 163.000275,169.707901 
	C165.170288,169.944550 167.037445,170.148178 168.904587,170.351791 
	C168.900696,170.683319 168.896805,171.014862 168.892899,171.346390 
	C160.321304,171.346390 151.749710,171.346390 143.178116,171.346390 
	C143.110001,171.097900 143.041901,170.849396 142.973785,170.600906 
	C144.520386,170.273087 146.067001,169.945267 147.997559,169.536072 
	C147.997559,157.831818 148.187149,146.037598 147.916214,134.253998 
	C147.784088,128.507889 143.871552,123.651230 134.281250,125.859131 
	C133.568665,125.589668 133.440186,125.469200 133.311707,125.348740 
z"/>
<path fill="#000000" opacity="1.000000" stroke="none" 
	d="
M95.008347,132.721390 
	C95.002541,145.286591 95.002541,157.419495 95.002541,169.660202 
	C96.851562,169.946091 98.385773,170.183304 99.919983,170.420517 
	C99.913864,170.732574 99.907745,171.044632 99.901627,171.356689 
	C91.657494,171.356689 83.413361,171.356689 75.169220,171.356689 
	C75.103302,171.107407 75.037376,170.858109 74.971458,170.608826 
	C76.523148,170.274124 78.074837,169.939423 79.813187,169.564453 
	C79.813187,154.647232 79.813187,139.694885 79.813187,124.305153 
	C78.553253,124.120461 77.200676,123.922188 75.848099,123.723915 
	C75.855782,123.575554 75.863464,123.427193 75.871147,123.278831 
	C82.159996,123.278831 88.448845,123.278831 95.107216,123.278831 
	C93.637955,126.385147 98.375298,129.212936 95.008347,132.721390 
z"/>
<path fill="#000000" opacity="1.000000" stroke="none" 
	d="
M133.885666,125.895203 
	C133.140717,126.631989 132.207245,127.183716 131.273758,127.735435 
	C131.127640,127.479538 130.981522,127.223633 130.835403,126.967735 
	C131.465622,126.601105 132.095856,126.234467 133.018890,125.608292 
	C133.440186,125.469200 133.568665,125.589668 133.885666,125.895203 
z"/>
<path fill="#000000" opacity="1.000000" stroke="none" 
	d="
M201.000534,168.832138 
	C201.473694,168.943604 201.946838,169.055084 202.436905,169.170532 
	C196.921494,172.973618 185.913300,173.158920 181.052475,169.544830 
	C175.700668,165.565674 177.133865,154.249405 184.069351,151.188019 
	C189.881577,148.622437 196.328690,147.184830 202.643127,146.189545 
	C206.149796,145.636810 207.358932,144.624893 207.021301,141.309265 
	C206.886917,139.989761 207.003265,138.645126 206.998184,137.311966 
	C206.974686,131.151367 207.659073,124.628311 198.942123,122.901917 
	C199.212265,122.401299 199.482407,121.900673 199.752563,121.400055 
	C205.036636,122.678009 210.696259,123.165894 215.501938,125.450256 
	C220.575562,127.861984 221.810394,133.503647 221.948715,138.861130 
	C222.150803,146.688354 221.729172,154.539017 222.141266,162.349731 
	C222.295547,165.273773 224.041611,168.113800 225.072235,171.021255 
	C219.174149,173.037888 212.434723,173.109573 206.587341,166.578400 
	C206.644394,159.832916 206.942139,153.514862 207.238342,147.229324 
	C197.941238,146.707947 192.397446,150.308990 192.001022,156.563126 
	C191.505402,164.382187 194.332535,168.236435 201.000534,168.832138 
z"/>
<path fill="#000000" opacity="1.000000" stroke="none" 
	d="
M191.084305,123.958763 
	C193.339828,123.518646 195.193130,123.113548 197.046417,122.708458 
	C192.424911,124.205956 192.150467,126.833092 193.829239,130.842041 
	C194.614838,132.718094 194.997650,135.688004 194.033447,137.160828 
	C192.477997,139.536819 189.788513,142.341217 187.331406,142.597183 
	C185.249069,142.814087 181.651337,140.104309 180.855942,137.915100 
	C179.992676,135.539093 180.745468,131.610458 182.337662,129.554962 
	C184.278152,127.049805 187.828186,125.791428 191.084305,123.958763 
z"/>
<path fill="#78DEDE" opacity="1.000000" stroke="none" 
	d="
M201.000366,168.499115 
	C194.332535,168.236435 191.505402,164.382187 192.001022,156.563126 
	C192.397446,150.308990 197.941238,146.707947 207.238342,147.229324 
	C206.942139,153.514862 206.644394,159.832916 206.230988,166.555206 
	C205.247406,166.717102 204.379517,166.474731 203.391739,165.713882 
	C203.601105,160.198959 203.930328,155.202515 204.262192,150.166107 
	C198.741409,150.294037 194.421509,153.605988 194.012985,157.478226 
	C193.563217,161.741592 196.369812,165.232010 201.000214,166.167847 
	C201.000198,166.833923 201.000183,167.500000 201.000366,168.499115 
z"/>
<path fill="#000000" opacity="1.000000" stroke="none" 
	d="
M204.000610,138.812180 
	C204.905914,143.551163 201.515213,143.427856 199.016205,143.947403 
	C196.679230,144.433258 194.258423,144.515884 190.581284,144.917053 
	C200.108871,140.364563 196.469437,132.968628 196.049347,126.467461 
	C202.813660,125.627243 203.927429,126.564339 203.997711,132.887512 
	C204.017944,134.707550 204.000839,136.527985 204.000610,138.812180 
z"/>
<path fill="#000000" opacity="1.000000" stroke="none" 
	d="
M201.309326,166.093689 
	C196.369812,165.232010 193.563217,161.741592 194.012985,157.478226 
	C194.421509,153.605988 198.741409,150.294037 204.262192,150.166107 
	C203.930328,155.202515 203.601105,160.198959 203.080078,165.576019 
	C202.465027,165.977600 202.041733,165.998566 201.309326,166.093689 
z"/>
<path fill="#000000" opacity="1.000000" stroke="none" 
	d="
M10.998859,134.000000 
	C10.998859,123.197098 10.998859,112.894196 10.998859,102.232872 
	C9.462202,102.071465 8.099548,101.928345 6.736894,101.785217 
	C6.747427,101.600143 6.757961,101.415070 6.768494,101.229996 
	C12.967510,101.229996 19.166525,101.229996 25.794113,101.229996 
	C25.794113,123.930786 25.794113,146.637619 25.794113,169.595703 
	C28.095968,169.909225 30.021549,170.171494 31.947130,170.433762 
	C31.921854,170.786575 31.896576,171.139404 31.871300,171.492218 
	C23.309488,171.492218 14.747678,171.492218 6.185866,171.492218 
	C6.104181,171.191635 6.022495,170.891052 5.940809,170.590469 
	C7.446810,170.299561 8.952811,170.008652 10.998859,169.613419 
	C10.998859,158.045761 10.998859,146.272873 10.998859,134.000000 
z"/>
<path fill="#000000" opacity="1.000000" stroke="none" 
	d="
M59.841450,172.000168 
	C52.958549,172.000168 46.553802,172.000168 40.149059,172.000168 
	C40.092278,171.523956 40.035500,171.047760 39.978718,170.571548 
	C41.838642,170.271851 43.698570,169.972137 45.782524,169.636337 
	C45.782524,154.575729 45.782524,139.488083 45.782524,124.253349 
	C44.400887,124.057640 43.026680,123.862984 41.652470,123.668327 
	C41.666916,123.507103 41.681358,123.345871 41.695805,123.184647 
	C47.957882,123.184647 54.219959,123.184647 60.903587,123.184647 
	C60.903587,138.731384 60.903587,154.126450 60.903587,169.653336 
	C62.832741,169.940826 64.375366,170.170700 65.917992,170.400574 
	C65.946228,170.812759 65.974457,171.224960 66.002693,171.637146 
	C64.108330,171.758148 62.213966,171.879166 59.841450,172.000168 
z"/>
<path fill="#000000" opacity="1.000000" stroke="none" 
	d="
M60.309937,104.751511 
	C62.472538,109.394302 60.805248,114.557068 56.809040,116.658859 
	C53.384239,118.460121 46.965008,116.522560 45.014683,113.098892 
	C42.595970,108.852989 44.067661,103.762650 48.515121,100.991447 
	C52.530884,98.489235 57.028522,99.837761 60.309937,104.751511 
z"/>
</svg>