<svg version="1.1" id="Layer_1" xmlns="http://www.w3.org/2000/svg" xmlns:xlink="http://www.w3.org/1999/xlink" x="0px" y="0px"
	 width="100%" viewBox="0 0 300 300" enable-background="new 0 0 300 300" xml:space="preserve">
<path fill="#000101" opacity="1.000000" stroke="none" 
	d="
M1.000000,180.000000 
	C1.000000,120.373024 1.000000,60.746044 1.000000,1.059534 
	C100.893761,1.059534 200.787567,1.059534 301.000000,1.059534 
	C301.000000,60.353848 301.000000,119.708267 300.532166,179.529800 
	C200.376205,179.997955 100.688103,179.998978 1.000000,180.000000 
M147.264725,121.798538 
	C139.963364,121.228996 133.424683,123.036667 128.045090,128.164398 
	C120.895576,120.493568 107.715660,118.894913 95.958908,126.874710 
	C95.547432,125.526299 95.144516,124.205933 94.913551,123.449036 
	C87.632401,123.449036 80.878082,123.449036 74.123764,123.449036 
	C74.115585,123.777832 74.107399,124.106628 74.099220,124.435425 
	C75.737213,124.759758 77.375206,125.084091 79.060158,125.417725 
	C79.060158,140.188370 79.060158,154.786850 79.060158,169.348587 
	C77.201225,169.854980 75.562981,170.301254 73.924728,170.747528 
	C74.010277,170.964142 74.095825,171.180756 74.181374,171.397369 
	C83.033539,171.397369 91.885704,171.397369 100.737869,171.397369 
	C100.751709,171.082077 100.765556,170.766785 100.779404,170.451492 
	C99.107178,170.114441 97.434944,169.777390 95.403564,169.367950 
	C95.403564,158.128876 95.376991,146.991379 95.414764,135.854080 
	C95.433670,130.279251 99.132431,126.305382 104.456444,125.985756 
	C109.591835,125.677444 113.430771,128.475876 113.664062,134.309998 
	C114.133888,146.059235 113.803909,157.840454 113.803909,169.582458 
	C111.592720,169.899506 109.719109,170.168137 107.845490,170.436783 
	C107.910576,170.761566 107.975662,171.086349 108.040749,171.411133 
	C117.172066,171.411133 126.303391,171.411133 135.434708,171.411133 
	C135.453140,171.083221 135.471573,170.755295 135.490005,170.427383 
	C133.820206,170.122086 132.150406,169.816788 130.304153,169.479233 
	C130.244171,168.569214 130.164139,167.755844 130.140793,166.940887 
	C129.812485,155.475418 129.453857,144.010437 129.237045,132.542801 
	C129.218460,131.560272 129.938705,130.341049 130.684494,129.605835 
	C133.713089,126.620193 137.377991,125.117363 141.607269,126.328255 
	C145.727570,127.507935 147.360977,131.000687 147.434631,134.798279 
	C147.659927,146.414383 147.516495,158.037628 147.516495,169.654510 
	C145.794983,169.901474 144.174698,170.133926 142.554398,170.366364 
	C142.617722,170.718216 142.681030,171.070053 142.744339,171.421890 
	C151.503357,171.421890 160.262360,171.421890 169.021362,171.421890 
	C169.045410,171.095947 169.069458,170.770004 169.093491,170.444061 
	C167.462280,170.114716 165.831070,169.785370 163.927689,169.401093 
	C163.927689,159.780228 164.094620,150.299591 163.885056,140.827271 
	C163.628403,129.226807 158.602158,123.351013 147.264725,121.798538 
M276.080475,166.260071 
	C277.608887,171.125107 272.054871,168.926300 270.636841,171.406555 
	C279.867615,171.406555 288.652771,171.406555 297.437927,171.406555 
	C297.455597,171.079239 297.473236,170.751907 297.490875,170.424591 
	C295.820312,170.118881 294.149780,169.813171 292.090485,169.436310 
	C292.090485,159.732956 292.251984,150.097137 292.050995,140.468887 
	C291.778931,127.437675 284.624725,120.723236 271.639954,121.944366 
	C267.399292,122.343178 263.357544,124.854263 259.223602,126.396057 
	C258.807281,126.551331 258.382599,126.684158 257.829773,126.872353 
	C257.508362,125.481033 257.222656,124.244308 257.057922,123.531281 
	C249.828964,123.531281 242.967331,123.531281 236.105713,123.531281 
	C236.112534,123.853378 236.119370,124.175484 236.126190,124.497581 
	C237.796143,124.798759 239.466080,125.099937 241.015533,125.379387 
	C241.015533,140.303284 241.015533,154.891846 241.015533,169.449982 
	C239.163116,169.847717 237.574860,170.188721 235.986588,170.529739 
	C236.044159,170.802902 236.101730,171.076050 236.159302,171.349213 
	C245.014725,171.349213 253.870148,171.349213 262.725586,171.349213 
	C262.739532,171.040421 262.753510,170.731628 262.767456,170.422836 
	C261.072479,170.098724 259.377472,169.774612 257.412964,169.398972 
	C257.412964,157.564087 257.347656,145.925720 257.493011,134.289993 
	C257.511902,132.780167 258.320160,131.051178 259.277405,129.825668 
	C261.992188,126.350060 265.753021,125.074043 269.955994,126.366287 
	C274.469391,127.753983 275.796478,131.699203 275.895050,135.842987 
	C276.128601,145.659622 276.039612,155.483917 276.080475,166.260071 
M204.126511,169.723938 
	C205.717178,168.525635 206.767609,167.512802 209.002686,169.615723 
	C213.519730,173.865631 223.686234,173.455704 228.740250,169.485428 
	C223.303711,168.459946 222.934036,168.025024 222.763870,162.018768 
	C222.509583,153.042038 222.613831,144.040024 221.945282,135.095123 
	C221.446899,128.427032 217.440903,123.648918 210.670090,123.039154 
	C203.985992,122.437225 197.007782,122.336723 190.495361,123.666023 
	C186.795364,124.421265 183.137756,127.991158 180.632965,131.206436 
	C178.456482,134.000290 179.030945,137.959076 181.943970,140.768036 
	C184.626129,143.354370 187.802246,143.878113 191.116592,142.145172 
	C194.698166,140.272522 195.740234,137.096786 195.035248,133.278137 
	C194.734482,131.649048 193.933853,130.054916 193.935898,128.445633 
	C193.937500,127.188469 194.463547,125.386276 195.386337,124.771294 
	C199.191757,122.235283 204.934814,124.426727 205.649475,128.912155 
	C206.471207,134.069534 206.483414,139.355881 206.856934,144.725632 
	C203.454498,145.231720 200.766037,145.360046 198.238297,146.064804 
	C193.158493,147.481064 187.898682,148.665756 183.211945,150.963440 
	C178.346100,153.348907 176.443069,159.109436 177.501450,164.238647 
	C178.625031,169.683884 182.633850,172.391769 187.469452,172.432327 
	C192.792633,172.476974 198.129242,170.923721 204.126511,169.723938 
M10.633889,168.272766 
	C8.850496,169.193466 7.067104,170.114182 4.302526,171.541443 
	C14.207372,171.541443 23.044064,171.541443 31.880756,171.541443 
	C31.926725,171.218140 31.972694,170.894836 32.018661,170.571533 
	C30.310892,170.162735 28.603123,169.753937 26.442280,169.236679 
	C26.442280,146.179565 26.442280,123.305702 26.442280,100.941544 
	C19.096016,100.941544 12.287519,100.941544 5.479022,100.941544 
	C5.482565,101.299980 5.486108,101.658417 5.489650,102.016846 
	C7.049557,102.298828 8.609463,102.580811 10.671543,102.953568 
	C10.671543,124.464485 10.671543,145.891281 10.633889,168.272766 
M61.119499,146.500015 
	C61.119499,138.735870 61.119499,130.971725 61.119499,123.530869 
	C54.048798,123.530869 47.551910,123.530869 41.055019,123.530869 
	C41.052437,123.848465 41.049854,124.166069 41.047268,124.483665 
	C42.364193,124.795906 43.681118,125.108139 44.815052,125.376991 
	C44.815052,140.349060 44.815052,154.940674 44.815052,169.475174 
	C42.999035,169.859421 41.441601,170.188950 39.884171,170.518494 
	C39.943203,170.822678 40.002239,171.126846 40.061272,171.431030 
	C48.828060,171.431030 57.594849,171.431030 66.361633,171.431030 
	C66.385132,171.099350 66.408630,170.767654 66.432129,170.435974 
	C64.776558,170.134293 63.120987,169.832626 61.119499,169.467926 
	C61.119499,162.100464 61.119499,154.800217 61.119499,146.500015 
M49.558090,99.781311 
	C45.029949,101.713936 42.818718,105.154884 43.464382,110.030296 
	C44.152569,115.226738 49.299789,118.770630 54.384430,117.866798 
	C59.327457,116.988152 62.653004,112.351456 61.999771,107.249008 
	C61.295345,101.746696 56.767693,98.750565 49.558090,99.781311 
z"/>
<path fill="#000101" opacity="1.000000" stroke="none" 
	d="
M301.000000,185.000000 
	C301.000000,223.634857 301.000000,262.269714 301.000000,300.952271 
	C201.114090,300.952271 101.228165,300.952271 1.000000,300.952271 
	C1.000000,262.646454 1.000000,224.291885 1.456002,185.581680 
	C100.618706,185.239761 199.325409,185.254272 298.032104,185.256119 
	C299.021393,185.256149 300.010712,185.089066 301.000000,185.000000 
z"/>
<path fill="#78DEDE" opacity="1.000000" stroke="none" 
	d="
M301.000000,184.583344 
	C300.010712,185.089066 299.021393,185.256149 298.032104,185.256119 
	C199.325409,185.254272 100.618706,185.239761 1.456002,185.113022 
	C1.000000,183.611115 1.000000,182.222214 1.000000,180.416656 
	C100.688103,179.998978 200.376205,179.997955 300.532166,179.998459 
	C301.000000,181.388885 301.000000,182.777786 301.000000,184.583344 
z"/>
<path fill="#76DADA" opacity="1.000000" stroke="none" 
	d="
M147.713104,121.835159 
	C158.602158,123.351013 163.628403,129.226807 163.885056,140.827271 
	C164.094620,150.299591 163.927689,159.780228 163.927689,169.401093 
	C165.831070,169.785370 167.462280,170.114716 169.093491,170.444061 
	C169.069458,170.770004 169.045410,171.095947 169.021362,171.421890 
	C160.262360,171.421890 151.503357,171.421890 142.744339,171.421890 
	C142.681030,171.070053 142.617722,170.718216 142.554398,170.366364 
	C144.174698,170.133926 145.794983,169.901474 147.516495,169.654510 
	C147.516495,158.037628 147.659927,146.414383 147.434631,134.798279 
	C147.360977,131.000687 145.727570,127.507935 141.607269,126.328255 
	C137.377991,125.117363 133.713089,126.620193 130.684494,129.605835 
	C129.938705,130.341049 129.218460,131.560272 129.237045,132.542801 
	C129.453857,144.010437 129.812485,155.475418 130.140793,166.940887 
	C130.164139,167.755844 130.244171,168.569214 130.304153,169.479233 
	C132.150406,169.816788 133.820206,170.122086 135.490005,170.427383 
	C135.471573,170.755295 135.453140,171.083221 135.434708,171.411133 
	C126.303391,171.411133 117.172066,171.411133 108.040749,171.411133 
	C107.975662,171.086349 107.910576,170.761566 107.845490,170.436783 
	C109.719109,170.168137 111.592720,169.899506 113.803909,169.582458 
	C113.803909,157.840454 114.133888,146.059235 113.664062,134.309998 
	C113.430771,128.475876 109.591835,125.677444 104.456444,125.985756 
	C99.132431,126.305382 95.433670,130.279251 95.414764,135.854080 
	C95.376991,146.991379 95.403564,158.128876 95.403564,169.367950 
	C97.434944,169.777390 99.107178,170.114441 100.779404,170.451492 
	C100.765556,170.766785 100.751709,171.082077 100.737869,171.397369 
	C91.885704,171.397369 83.033539,171.397369 74.181374,171.397369 
	C74.095825,171.180756 74.010277,170.964142 73.924728,170.747528 
	C75.562981,170.301254 77.201225,169.854980 79.060158,169.348587 
	C79.060158,154.786850 79.060158,140.188370 79.060158,125.417725 
	C77.375206,125.084091 75.737213,124.759758 74.099220,124.435425 
	C74.107399,124.106628 74.115585,123.777832 74.123764,123.449036 
	C80.878082,123.449036 87.632401,123.449036 94.913551,123.449036 
	C95.144516,124.205933 95.547432,125.526299 95.958908,126.874710 
	C107.715660,118.894913 120.895576,120.493568 128.045090,128.164398 
	C133.424683,123.036667 139.963364,121.228996 147.713104,121.835159 
z"/>
<path fill="#76DADA" opacity="1.000000" stroke="none" 
	d="
M276.080750,165.782593 
	C276.039612,155.483917 276.128601,145.659622 275.895050,135.842987 
	C275.796478,131.699203 274.469391,127.753983 269.955994,126.366287 
	C265.753021,125.074043 261.992188,126.350060 259.277405,129.825668 
	C258.320160,131.051178 257.511902,132.780167 257.493011,134.289993 
	C257.347656,145.925720 257.412964,157.564087 257.412964,169.398972 
	C259.377472,169.774612 261.072479,170.098724 262.767456,170.422836 
	C262.753510,170.731628 262.739532,171.040421 262.725586,171.349213 
	C253.870148,171.349213 245.014725,171.349213 236.159302,171.349213 
	C236.101730,171.076050 236.044159,170.802902 235.986588,170.529739 
	C237.574860,170.188721 239.163116,169.847717 241.015533,169.449982 
	C241.015533,154.891846 241.015533,140.303284 241.015533,125.379387 
	C239.466080,125.099937 237.796143,124.798759 236.126190,124.497581 
	C236.119370,124.175484 236.112534,123.853378 236.105713,123.531281 
	C242.967331,123.531281 249.828964,123.531281 257.057922,123.531281 
	C257.222656,124.244308 257.508362,125.481033 257.829773,126.872353 
	C258.382599,126.684158 258.807281,126.551331 259.223602,126.396057 
	C263.357544,124.854263 267.399292,122.343178 271.639954,121.944366 
	C284.624725,120.723236 291.778931,127.437675 292.050995,140.468887 
	C292.251984,150.097137 292.090485,159.732956 292.090485,169.436310 
	C294.149780,169.813171 295.820312,170.118881 297.490875,170.424591 
	C297.473236,170.751907 297.455597,171.079239 297.437927,171.406555 
	C288.652771,171.406555 279.867615,171.406555 270.636841,171.406555 
	C272.054871,168.926300 277.608887,171.125107 276.080750,165.782593 
z"/>
<path fill="#74D8D8" opacity="1.000000" stroke="none" 
	d="
M203.793243,169.895264 
	C198.129242,170.923721 192.792633,172.476974 187.469452,172.432327 
	C182.633850,172.391769 178.625031,169.683884 177.501450,164.238647 
	C176.443069,159.109436 178.346100,153.348907 183.211945,150.963440 
	C187.898682,148.665756 193.158493,147.481064 198.238297,146.064804 
	C200.766037,145.360046 203.454498,145.231720 206.856934,144.725632 
	C206.483414,139.355881 206.471207,134.069534 205.649475,128.912155 
	C204.934814,124.426727 199.191757,122.235283 195.386337,124.771294 
	C194.463547,125.386276 193.937500,127.188469 193.935898,128.445633 
	C193.933853,130.054916 194.734482,131.649048 195.035248,133.278137 
	C195.740234,137.096786 194.698166,140.272522 191.116592,142.145172 
	C187.802246,143.878113 184.626129,143.354370 181.943970,140.768036 
	C179.030945,137.959076 178.456482,134.000290 180.632965,131.206436 
	C183.137756,127.991158 186.795364,124.421265 190.495361,123.666023 
	C197.007782,122.336723 203.985992,122.437225 210.670090,123.039154 
	C217.440903,123.648918 221.446899,128.427032 221.945282,135.095123 
	C222.613831,144.040024 222.509583,153.042038 222.763870,162.018768 
	C222.934036,168.025024 223.303711,168.459946 228.740250,169.485428 
	C223.686234,173.455704 213.519730,173.865631 209.002686,169.615723 
	C206.767609,167.512802 205.717178,168.525635 203.793243,169.895264 
M206.646790,163.742722 
	C206.646790,158.295898 206.646790,152.849091 206.646790,145.842545 
	C202.101364,147.929230 197.993744,148.978027 194.985947,151.395325 
	C190.664291,154.868561 191.149002,162.406738 195.166870,166.103271 
	C198.780991,169.428299 203.197586,168.843796 206.646790,163.742722 
z"/>
<path fill="#75D9D9" opacity="1.000000" stroke="none" 
	d="
M10.652716,167.795425 
	C10.671543,145.891281 10.671543,124.464485 10.671543,102.953568 
	C8.609463,102.580811 7.049557,102.298828 5.489650,102.016846 
	C5.486108,101.658417 5.482565,101.299980 5.479022,100.941544 
	C12.287519,100.941544 19.096016,100.941544 26.442280,100.941544 
	C26.442280,123.305702 26.442280,146.179565 26.442280,169.236679 
	C28.603123,169.753937 30.310892,170.162735 32.018661,170.571533 
	C31.972694,170.894836 31.926725,171.218140 31.880756,171.541443 
	C23.044064,171.541443 14.207372,171.541443 4.302526,171.541443 
	C7.067104,170.114182 8.850496,169.193466 10.652716,167.795425 
z"/>
<path fill="#77DCDC" opacity="1.000000" stroke="none" 
	d="
M61.119499,147.000000 
	C61.119499,154.800217 61.119499,162.100464 61.119499,169.467926 
	C63.120987,169.832626 64.776558,170.134293 66.432129,170.435974 
	C66.408630,170.767654 66.385132,171.099350 66.361633,171.431030 
	C57.594849,171.431030 48.828060,171.431030 40.061272,171.431030 
	C40.002239,171.126846 39.943203,170.822678 39.884171,170.518494 
	C41.441601,170.188950 42.999035,169.859421 44.815052,169.475174 
	C44.815052,154.940674 44.815052,140.349060 44.815052,125.376991 
	C43.681118,125.108139 42.364193,124.795906 41.047268,124.483665 
	C41.049854,124.166069 41.052437,123.848465 41.055019,123.530869 
	C47.551910,123.530869 54.048798,123.530869 61.119499,123.530869 
	C61.119499,130.971725 61.119499,138.735870 61.119499,147.000000 
z"/>
<path fill="#74D8D8" opacity="1.000000" stroke="none" 
	d="
M49.921589,99.639122 
	C56.767693,98.750565 61.295345,101.746696 61.999771,107.249008 
	C62.653004,112.351456 59.327457,116.988152 54.384430,117.866798 
	C49.299789,118.770630 44.152569,115.226738 43.464382,110.030296 
	C42.818718,105.154884 45.029949,101.713936 49.921589,99.639122 
z"/>
<path fill="#050A0A" opacity="1.000000" stroke="none" 
	d="
M206.598236,164.169769 
	C203.197586,168.843796 198.780991,169.428299 195.166870,166.103271 
	C191.149002,162.406738 190.664291,154.868561 194.985947,151.395325 
	C197.993744,148.978027 202.101364,147.929230 206.646790,145.842545 
	C206.646790,152.849091 206.646790,158.295898 206.598236,164.169769 
z"/>
</svg>